<svg xmlns="http://www.w3.org/2000/svg" width="41.836" height="42" viewBox="0 0 41.836 42">
  <g id="add-friend" transform="translate(-1 0)">
    <path id="Path_426" data-name="Path 426" d="M42.836,26a8.609,8.609,0,0,0-15-5.768,18.53,18.53,0,0,0-2.848-1.169,10.336,10.336,0,1,0-11.07-.012A18.482,18.482,0,0,0,1,36.668v4.1A1.23,1.23,0,0,0,2.23,42H36.684a1.231,1.231,0,0,0,1.23-1.23v-4.1a18.431,18.431,0,0,0-.214-2.785A8.625,8.625,0,0,0,42.836,26ZM11.582,10.336a7.875,7.875,0,1,1,7.875,7.875A7.884,7.884,0,0,1,11.582,10.336ZM35.453,36.668v2.871H3.461V36.668A15.968,15.968,0,0,1,26.448,22.3a8.612,8.612,0,0,0,7.774,12.32,8.661,8.661,0,0,0,1.087-.068A15.925,15.925,0,0,1,35.453,36.668ZM36,31.893c-.031.008-.061.016-.09.026a6.083,6.083,0,1,1,.09-.026Z" fill="#ac9fef"/>
    <path id="Path_427" data-name="Path 427" d="M367.152,274.461h-1.23v-1.23a1.23,1.23,0,1,0-2.461,0v1.23h-1.23a1.23,1.23,0,0,0,0,2.461h1.23v1.23a1.23,1.23,0,1,0,2.461,0v-1.23h1.23a1.23,1.23,0,0,0,0-2.461Z" transform="translate(-330.469 -249.688)" fill="#ac9fef"/>
  </g>
</svg>
