<svg xmlns="http://www.w3.org/2000/svg" width="974.703" height="952.273" viewBox="0 0 974.703 952.273">
  <g id="_10-speaker" data-name="10-speaker" transform="translate(1173.943 476.619) rotate(133)" opacity="0.416">
    <path id="Path_2" data-name="Path 2" d="M371.235,299.235C371.108,186.465,288.94,92.919,178.293,74.607,169.1,73.064,144,72,144,72V223.49a75.745,75.745,0,1,1,0,151.49v151.49C269.44,526.328,371.094,424.674,371.235,299.235Z" transform="translate(-11 203.235)" fill="#7962f4"/>
    <path id="Path_3" data-name="Path 3" d="M144,48V199.49c167.331,0,302.98,135.649,302.98,302.98S311.331,805.449,144,805.449v151.49c251,0,454.469-203.473,454.469-454.47S395,48,144,48Z" transform="translate(96.667)" fill="#7962f4"/>
  </g>
</svg>
