<svg xmlns="http://www.w3.org/2000/svg" width="502.532" height="432.908" viewBox="0 0 502.532 432.908">
  <g id="undraw_mello_otq1_1_" data-name="undraw_mello_otq1(1)" transform="translate(0)">
    <path id="Path_47" data-name="Path 47" d="M327.375,313.578s-53.747,18.512-64.055,35.6S327.375,313.578,327.375,313.578Z" transform="translate(-202.681 -174.537)" fill="#7962f4"/>
    <path id="Path_48" data-name="Path 48" d="M211.149,367.5a2.619,2.619,0,0,1-2.039-.752c-1.672-1.506-.306-4.354.867-6.365,15.724-26.955,94.788-55.36,98.145-56.556l7.23-2.575-6.191,4.536c-.229.168-23.23,17-46.776,32.865C225.779,363.312,214.911,367.5,211.149,367.5ZM301.1,308.864c-20.76,8.036-76.708,31.265-89.18,52.648-1.661,2.847-1.31,3.562-1.305,3.568.336.362,4.585,2.638,50.249-28.1C276.778,326.26,292.482,315.069,301.1,308.864Z" transform="translate(-179.32 -169.206)" fill="#3f3d56"/>
    <path id="Path_49" data-name="Path 49" d="M324.249,279.866s-49.53-5.091-64.555,3.609S324.249,279.866,324.249,279.866Z" transform="translate(-200.72 -159.315)" fill="#7962f4"/>
    <path id="Path_50" data-name="Path 50" d="M241.239,282.514c-17.337,0-18.528-2.779-19.073-4.05-1.09-2.543,1.943-4.937,2.939-5.724,21.5-16.974,86.8.18,89.567.918l5.311,1.416-5.441.777c-.219.031-22.1,3.143-44.176,5.091C257.489,282.079,248.1,282.514,241.239,282.514Zm15.193-14.957c-12.212,0-23.383,1.769-29.937,6.944-1.978,1.561-2.468,2.614-2.268,3.08.5,1.172,5.3,4.715,45.94,1.129,15.144-1.336,30.193-3.222,38.185-4.279C298.113,272.073,275.944,267.557,256.432,267.557Z" transform="translate(-185.203 -153.642)" fill="#3f3d56"/>
    <path id="Path_51" data-name="Path 51" d="M384.766,215.245s-24.913-59.82-18.877-65.741S384.766,215.245,384.766,215.245Z" transform="translate(-247.063 -103.418)" fill="#7962f4"/>
    <path id="Path_52" data-name="Path 52" d="M382.937,203.319l-3.1-7.915c-.076-.194-7.655-19.61-13.9-39.6-12.865-41.168-7.592-44.684-5.859-45.839a2.917,2.917,0,0,1,2.977-.251c9.717,4.528,18.027,76.918,18.943,85.158Zm-21.152-91.656a.832.832,0,0,0-.462.168c-6.191,4.128,6.36,44.765,17.393,74.343-3.784-30.5-10.753-71.7-16.607-74.428A.761.761,0,0,0,361.785,111.663Z" transform="translate(-243.856 -86.23)" fill="#3f3d56"/>
    <path id="Path_53" data-name="Path 53" d="M416.468,242.714s13.372-60.465,27.38-60.465S416.468,242.714,416.468,242.714Z" transform="translate(-269.348 -117.732)" fill="#7962f4"/>
    <path id="Path_54" data-name="Path 54" d="M410.251,224.2l1.323-4.978c.971-3.651,24.06-89.415,49.3-89.415,3.46,0,4.953,1.623,5.6,2.985,6.73,14.253-46.818,79.983-52.946,87.431Zm50.622-92.151c-20.146,0-40.172,63.674-45.663,82.545,18.069-22.449,54.084-70.569,49.232-80.845C464.242,133.332,463.639,132.052,460.873,132.052Z" transform="translate(-266.659 -95.05)" fill="#3f3d56"/>
    <path id="Path_55" data-name="Path 55" d="M430.3,273.2s45.973-29.051,140.162-20.183S430.3,273.2,430.3,273.2Z" transform="translate(-275.331 -147.613)" fill="#7962f4"/>
    <path id="Path_56" data-name="Path 56" d="M424.773,269.176l2.407-2.063c.487-.418,12.207-10.324,35.69-18.291,21.609-7.333,57.631-14.24,106.52-5.508,20.655,3.689,23.337,6.437,23.157,8.858-.177,2.392-.594,7.993-83.12,13.185-40.328,2.537-81.078,3.718-81.485,3.729Zm100.246-27.7c-53.1,0-84.5,18.869-93.6,25.256,10.776-.345,44.471-1.515,77.873-3.617,76.686-4.825,80.944-10.1,81.019-11.112.009-.108-.048-2.687-21.314-6.484a249.962,249.962,0,0,0-43.976-4.043Z" transform="translate(-272.941 -142.379)" fill="#3f3d56"/>
    <path id="Path_57" data-name="Path 57" d="M481.676,295.837s80.528-1.075,85.053,7.524S481.676,295.837,481.676,295.837Z" transform="translate(-297.554 -166.845)" fill="#7962f4"/>
    <path id="Path_58" data-name="Path 58" d="M571.67,316.859c-25.7,0-87.489-18.457-95.69-20.942l-6.72-2.036,7.02-.158c10.3-.231,100.8-1.736,106.5,16.484a4.043,4.043,0,0,1-.883,4.325C580.274,316.166,576.648,316.859,571.67,316.859Zm-88.019-21c37.772,11.071,90.221,23.579,96.651,17.09a1.832,1.832,0,0,0,.335-2.077C576.593,297.931,514.867,295.651,483.651,295.862Z" transform="translate(-292.183 -165.895)" fill="#3f3d56"/>
    <path id="Path_59" data-name="Path 59" d="M454.012,311.6s48.64,22.481,39.135,29.4S454.012,311.6,454.012,311.6Z" transform="translate(-285.588 -173.683)" fill="#7962f4"/>
    <path id="Path_60" data-name="Path 60" d="M517.831,363.329c-23.529,0-71.435-56.592-73.664-59.241l-3.154-3.749,4.471,2c3.262,1.462,79.914,36.014,81.592,53.321a6.178,6.178,0,0,1-2.913,5.8A10.715,10.715,0,0,1,517.831,363.329ZM449.186,306.5c18.5,21.224,59.659,63.044,73.683,53.14a3.911,3.911,0,0,0,1.976-3.756C523.638,343.437,473.548,317.779,449.186,306.5Z" transform="translate(-279.965 -168.811)" fill="#3f3d56"/>
    <path id="Path_61" data-name="Path 61" d="M596.284,359.026s40.367,16.819,31.4,28.032S596.284,359.026,596.284,359.026Z" transform="translate(-347.127 -194.196)" fill="#7962f4"/>
    <path id="Path_62" data-name="Path 62" d="M463.892,335.314s84.1,91.946,76.248,97.553S463.892,335.314,463.892,335.314Z" transform="translate(-289.861 -183.939)" fill="#7962f4"/>
    <path id="Path_63" data-name="Path 63" d="M436.228,323.458s35.407,58.97,28.181,64.7S436.228,323.458,436.228,323.458Z" transform="translate(-277.895 -178.811)" fill="#7962f4"/>
    <path id="Path_64" data-name="Path 64" d="M471.792,402.048a4.146,4.146,0,0,1-1.3-.218c-12.98-4.264-39.142-80.861-42.082-89.581l-2.615-7.755,4.6,6.766c.137.2,13.9,20.458,26.112,41.414,22.577,38.74,20.706,46.358,17.334,48.718A3.53,3.53,0,0,1,471.792,402.048Zm-38.4-82.255c9.543,27.09,28.755,76.934,37.805,79.907a1.421,1.421,0,0,0,1.368-.146c1.853-1.3,3.81-8.35-17.981-45.743-7.731-13.266-16.088-26.255-21.192-34.019Z" transform="translate(-273.383 -170.609)" fill="#3f3d56"/>
    <path id="Path_65" data-name="Path 65" d="M395.608,319.506s-31.866,94.029-12.312,93.06S395.608,319.506,395.608,319.506Z" transform="translate(-252.254 -177.102)" fill="#7962f4"/>
    <path id="Path_66" data-name="Path 66" d="M366.194,425.063a8.886,8.886,0,0,1-7.849-3.991c-12.616-18.8,24.756-101.725,26.353-105.246l1.7-3.758.431,4.1c.354,3.358,8.447,82.489-9.887,103.629a13.99,13.99,0,0,1-10.248,5.253C366.529,425.06,366.36,425.063,366.194,425.063ZM385,320.7c-7.388,16.988-35.223,83.57-24.79,99.119a6.792,6.792,0,0,0,6.408,2.99,11.686,11.686,0,0,0,8.637-4.482C390.578,400.659,386.438,337.777,385,320.7Z" transform="translate(-243.084 -173.884)" fill="#3f3d56"/>
    <path id="Path_67" data-name="Path 67" d="M353.152,327.743s-53.491,61.18-48.6,67.624S353.152,327.743,353.152,327.743Z" transform="translate(-220.805 -180.664)" fill="#7962f4"/>
    <path id="Path_68" data-name="Path 68" d="M273.959,403.2A3.133,3.133,0,0,1,272,402.55,3.453,3.453,0,0,1,270.726,400c-1.344-15.2,69.86-94.4,72.891-97.76l7.168-7.953-5.364,9.265c-2.286,3.949-56.154,96.738-70.66,99.565a4.194,4.194,0,0,1-.8.081Zm63.759-90.958c-23.591,26.793-65.692,77.011-64.759,87.562a1.227,1.227,0,0,0,.416.977,1.092,1.092,0,0,0,.955.137c10.025-1.954,45.044-57.8,63.388-88.676Z" transform="translate(-206.3 -166.194)" fill="#3f3d56"/>
    <path id="Path_69" data-name="Path 69" d="M287.159,216.944S240.524,161.858,197.4,167.2,287.159,216.944,287.159,216.944Z" transform="translate(-170.867 -111.063)" fill="#7962f4"/>
    <path id="Path_70" data-name="Path 70" d="M279.714,218.323l-3.67-.839c-.295-.067-29.769-6.827-58.91-15.451-59.672-17.659-59.864-25.779-59.927-28.447-.077-3.219,3.2-5.709,10.019-7.613,25.3-7.063,53.877,6.85,73.383,19.768a244.005,244.005,0,0,1,36.49,29.87ZM181.708,166.3a51.447,51.447,0,0,0-13.879,1.835c-5.451,1.521-8.426,3.438-8.38,5.4.255,10.766,66.431,29.963,113.23,40.872-11.063-10.612-52.858-48.106-90.97-48.106Z" transform="translate(-157.206 -109.868)" fill="#3f3d56"/>
    <path id="Path_71" data-name="Path 71" d="M254.14,247.695s-61.671-4.485-57.186,6.728S254.14,247.695,254.14,247.695Z" transform="translate(-174.298 -145.657)" fill="#7962f4"/>
    <path id="Path_72" data-name="Path 72" d="M317.756,165.5s-3.364-15.7-8.97-12.334S317.756,165.5,317.756,165.5Z" transform="translate(-222.216 -104.946)" fill="#7962f4"/>
    <path id="Path_73" data-name="Path 73" d="M425.688,145.367s15.386-64.655,8.413-64.893S425.688,145.367,425.688,145.367Z" transform="translate(-273.337 -73.71)" fill="#7962f4"/>
    <path id="Path_74" data-name="Path 74" d="M420.514,154.526l-.126-8.587c-.04-2.758-.9-67.645,7.54-76.207a3.54,3.54,0,0,1,2.551-1.179,2.985,2.985,0,0,1,2.4,1.23c6.491,8.314-8.549,69.465-10.285,76.411Zm9.966-83.73c-.112,0-.451,0-.954.51-5.571,5.655-6.865,43.272-6.94,65.4,6.176-26.361,12.47-60.491,8.529-65.538A.756.756,0,0,0,430.479,70.8Z" transform="translate(-271.026 -68.554)" fill="#3f3d56"/>
    <path id="Path_75" data-name="Path 75" d="M550.836,200.844s6.728-16.819,13.456-12.334S550.836,200.844,550.836,200.844Z" transform="translate(-327.468 -120.111)" fill="#7962f4"/>
    <path id="Path_76" data-name="Path 76" d="M436.383,473.634s-8.97,66.156,7.849,65.035S436.383,473.634,436.383,473.634Z" transform="translate(-276.929 -243.769)" fill="#7962f4"/>
    <path id="Path_77" data-name="Path 77" d="M505.565,394.163s-8.595-14.324-8.595-24.351c0,0-15.04-15.757-10.743-20.054s13.608,12.176,13.608,12.176-17.189-19.338-12.176-22.2,21.486,18.622,21.486,18.622l5.73-2.865s-12.17-30.016-3.581-30.8c3.939-.358,12.892,28.649,12.892,28.649l9.311,23.635s3.581,8.595,2.149,13.608a94.534,94.534,0,0,0-2.149,9.311Z" transform="translate(-299.188 -179.342)" fill="#ffb9b9"/>
    <path id="Path_78" data-name="Path 78" d="M550.445,423.951s5.013-7.878,3.2-19.908-11.794-18.767-11.794-18.767-6.446,5.013,0,17.905c0,0-7.878,7.162-1.432,18.622" transform="translate(-321.865 -205.55)" opacity="0.1"/>
    <path id="Path_79" data-name="Path 79" d="M555.493,423.951s5.013-7.878,3.2-19.908S546.9,385.276,546.9,385.276s-6.446,5.013,0,17.905c0,0-7.878,7.162-1.432,18.622" transform="translate(-324.049 -205.55)" fill="#ffb9b9"/>
    <path id="Path_80" data-name="Path 80" d="M514.669,378.258l-3.939-6.088s-18.622-2.865-16.473,3.581S505,379.333,505,379.333l5.013,5.014Z" transform="translate(-302.921 -199.607)" opacity="0.1"/>
    <path id="Path_81" data-name="Path 81" d="M518.984,376.262l-5.73-7.878s-18.622-2.865-16.473,3.581,10.743,3.581,10.743,3.581l5.014,5.014Z" transform="translate(-304.013 -197.969)" fill="#ffb9b9"/>
    <path id="Path_82" data-name="Path 82" d="M610.233,478.532l-3.581,28.649,55.865,3.581V476.384Z" transform="translate(-262.404 -206.057)" fill="#ffb9b9"/>
    <path id="Path_83" data-name="Path 83" d="M806.535,664.117l-45.3-90.609c-2.706-8.962-11.158-23.559-37.418-32.938l-19.7-16.662-14.682-.527-58.73-8.595s-45.122-2.865-74.486,15.041l-7.878-3.581s-12.892-45.838-7.162-78.784L508.231,444.6s-17.905,78.068-9.311,101.7,40.108,40.824,40.108,40.824l27.932,27.932,10.743,48.7H745.3l2.667-12.778,13.09,12.778Z" transform="translate(-304.003 -231.209)" fill="#cfcce0"/>
    <path id="Path_84" data-name="Path 84" d="M805.057,407.9c-52.766,14.249-104.628,15.256-155.394.219a13.673,13.673,0,0,1-10.047-12.954v-148.3a13.774,13.774,0,0,1,11.93-13.375c47.889-7.51,98.622-6.929,151.684.28a13.786,13.786,0,0,1,12.216,13.417V394.851A13.691,13.691,0,0,1,805.057,407.9Z" transform="translate(-365.87 -137.568)" fill="#cfcce0"/>
    <path id="Path_85" data-name="Path 85" d="M727.081,348.266s-12.137-17.738-4.668-22.406,18.672,8.4,18.672,8.4,14-12.137,21.472-7.469-7.469,21.472-7.469,21.472,11.2,2.8,12.137,10.269,4.668,27.074-11.2,28.007c-8.5.5-13.253-1.947-15.833-4.327a5.2,5.2,0,0,0-6.853-.081c-5.382,4.534-15.075,9.761-22.126-3.06C708.409,359.469,727.081,348.266,727.081,348.266Z" transform="translate(-396.713 -179.414)" fill="#3f3d56"/>
    <path id="Path_86" data-name="Path 86" d="M865.934,351.556s12.137-17.738,4.668-22.406-18.672,8.4-18.672,8.4-14-12.137-21.472-7.469,7.469,21.472,7.469,21.472-11.2,2.8-12.137,10.269-4.668,27.074,11.2,28.007c8.5.5,13.253-1.947,15.833-4.327a5.2,5.2,0,0,1,6.853-.081c5.382,4.534,15.075,9.761,22.126-3.06C884.606,362.759,865.934,351.556,865.934,351.556Z" transform="translate(-445.943 -180.837)" fill="#3f3d56"/>
    <path id="Path_87" data-name="Path 87" d="M706.405,453.448s17.513,14.1,54.857,13.211,49.421-2.413,57.4-11.215,10.348,1.364,7.87,8.028-5.662,18.036-24.266,19.879c-12.248,1.213-38.719,1.5-55.378,1.556a85.137,85.137,0,0,1-37.433-8.328l-.462-.226a21.194,21.194,0,0,1-11.808-19c0-3.141.554-4.837,2.6-5.456A7.388,7.388,0,0,1,706.405,453.448Z" transform="translate(-390.772 -234.251)" fill="#3f3d56"/>
    <path id="Path_88" data-name="Path 88" d="M734.81,397.317a282.859,282.859,0,0,1-84.177-12.77,16.444,16.444,0,0,1-11.628-15.757V195.06a16.432,16.432,0,0,1,13.808-16.27c51.432-8.477,108.383-8.367,169.27.327a16.559,16.559,0,0,1,14.14,16.32V368.423A16.578,16.578,0,0,1,824.2,384.294c-29.815,8.461-59.291,12.841-87.609,13.017C736,397.315,735.4,397.317,734.81,397.317Zm-1.984-223.586a490.982,490.982,0,0,0-79.814,6.261,15.219,15.219,0,0,0-12.789,15.068V368.79a15.23,15.23,0,0,0,10.772,14.594c54.414,16.939,112.577,16.851,172.874-.261l.166.586-.166-.586a15.355,15.355,0,0,0,11.137-14.7V195.437a15.336,15.336,0,0,0-13.095-15.115,631.187,631.187,0,0,0-89.085-6.591Z" transform="translate(-365.606 -113.521)" fill="#3f3d56"/>
    <path id="Path_89" data-name="Path 89" d="M736.828,212.138c-13.411,0-24.888-.6-34.285-1.417-29.555-2.563-45.481-7.737-45.639-7.789l.382-1.156c.156.052,15.986,5.189,45.419,7.737,27.165,2.352,71.806,2.915,130.194-7.758l.219,1.2A536.89,536.89,0,0,1,736.828,212.138Z" transform="translate(-373.348 -126.169)" fill="#3f3d56"/>
  </g>
</svg>
