<svg xmlns="http://www.w3.org/2000/svg" xmlns:xlink="http://www.w3.org/1999/xlink" width="171" height="171" viewBox="0 0 171 171">
  <defs>
    <filter id="Ellipse_26" x="0" y="0" width="171" height="171" filterUnits="userSpaceOnUse">
      <feOffset dy="3" input="SourceAlpha"/>
      <feGaussianBlur stdDeviation="3" result="blur"/>
      <feFlood flood-opacity="0.161"/>
      <feComposite operator="in" in2="blur"/>
      <feComposite in="SourceGraphic"/>
    </filter>
  </defs>
  <g id="Group_17" data-name="Group 17" transform="translate(-178 -301)">
    <g transform="matrix(1, 0, 0, 1, 178, 301)" filter="url(#Ellipse_26)">
      <circle id="Ellipse_26-2" data-name="Ellipse 26" cx="76.5" cy="76.5" r="76.5" transform="translate(9 6)" fill="#1f1f1f" opacity="0.447"/>
    </g>
    <g id="user_1_" data-name="user(1)" transform="translate(222.853 334.786)">
      <path id="Path_386" data-name="Path 386" d="M110.563,47.062A22.769,22.769,0,0,0,127.2,40.168a22.768,22.768,0,0,0,6.893-16.638A22.772,22.772,0,0,0,127.2,6.893a23.526,23.526,0,0,0-33.275,0A22.769,22.769,0,0,0,87.031,23.53a22.768,22.768,0,0,0,6.895,16.638A22.774,22.774,0,0,0,110.563,47.062Zm0,0" transform="translate(-70.424 0)" fill="#fff"/>
      <path id="Path_387" data-name="Path 387" d="M81.313,275.25a58.12,58.12,0,0,0-.792-6.173A48.637,48.637,0,0,0,79,262.87a30.659,30.659,0,0,0-2.551-5.789,21.845,21.845,0,0,0-3.848-5.014,16.965,16.965,0,0,0-5.527-3.473,19.1,19.1,0,0,0-7.056-1.277c-1,0-1.962.409-3.825,1.622-1.146.748-2.487,1.612-3.984,2.569a22.828,22.828,0,0,1-5.155,2.271,20.018,20.018,0,0,1-12.61,0,22.775,22.775,0,0,1-5.151-2.27c-1.483-.947-2.824-1.812-3.988-2.57-1.86-1.213-2.826-1.622-3.823-1.622a19.076,19.076,0,0,0-7.055,1.278A16.949,16.949,0,0,0,8.9,252.067a21.847,21.847,0,0,0-3.846,5.013A30.717,30.717,0,0,0,2.5,262.87a48.752,48.752,0,0,0-1.518,6.206A57.916,57.916,0,0,0,.2,275.252c-.13,1.869-.2,3.81-.2,5.769,0,5.1,1.621,9.229,4.818,12.273,3.157,3,7.335,4.529,12.416,4.529H64.276c5.081,0,9.257-1.524,12.415-4.529,3.2-3.043,4.819-7.172,4.819-12.274C81.51,279.052,81.443,277.11,81.313,275.25Zm0,0" transform="translate(0 -200.124)" fill="#fff"/>
    </g>
  </g>
</svg>
