<svg xmlns="http://www.w3.org/2000/svg" xmlns:xlink="http://www.w3.org/1999/xlink" width="603.885" height="420.574" viewBox="0 0 603.885 420.574">
  <defs>
    <linearGradient id="linear-gradient" x1="0.5" y1="1" x2="0.5" gradientUnits="objectBoundingBox">
      <stop offset="0" stop-color="gray" stop-opacity="0.251"/>
      <stop offset="0.54" stop-color="gray" stop-opacity="0.122"/>
      <stop offset="1" stop-color="gray" stop-opacity="0.102"/>
    </linearGradient>
    <linearGradient id="linear-gradient-2" x1="0.495" y1="1.014" x2="0.495" y2="0" xlink:href="#linear-gradient"/>
    <linearGradient id="linear-gradient-3" x1="0.5" y1="1" x2="0.5" y2="0" xlink:href="#linear-gradient"/>
    <linearGradient id="linear-gradient-4" x1="0.5" y1="1" x2="0.5" y2="0" xlink:href="#linear-gradient"/>
  </defs>
  <g id="undraw_celebration_0jvk" transform="translate(0.02 -0.02)">
    <circle id="Ellipse_17" data-name="Ellipse 17" cx="29.558" cy="29.558" r="29.558" transform="translate(30.917 12.431)" fill="#7962f4"/>
    <path id="Path_224" data-name="Path 224" d="M193.853,221.4c12.411,28.032-3.421,60.311-22.056,84.617-6.237,8.151-13.123,16.7-13.987,26.919-1.043,12.506,7.426,24,17.471,31.516a73.567,73.567,0,0,0,65.156,11.018c18.845-5.97,34.689-19.455,53.7-24.891,31.789-9.1,65.486,5.989,92.711,24.8,19.271,13.294,39.909,29.494,63.14,26.646,16.346-2,30.219-13.479,39.635-26.989,4.546-6.523,8.5-13.835,15.119-18.234,3.936-2.619,8.558-4.005,13.18-5,42.21-9.022,87.008,13,128.658,1.672,28.134-7.629,50.564-29.882,64.514-55.485s20.46-54.513,25.883-83.155c3.853-20.345,7.051-42.324-1.806-61.036-9.371-19.811-31.065-31.821-52.866-34.072s-43.666,3.961-63.751,12.722c-25.095,10.974-49.693,26.334-77.083,26.385-18.654.038-36.443-7.121-54.277-12.582-29.819-9.124-60.826-13.657-91.725-17.84-29.583-4.005-59.459-7.731-89.22-5.366-21.057,1.672-39.654,9.721-60.088,13.447-13.32,2.429-26.7.636-39.775,4.7-16.1,5.035-32.654,16.7-33.544,35.076C172,193.762,187.273,206.529,193.853,221.4Z" transform="translate(-136.989 -119.24)" fill="#7962f4" opacity="0.1"/>
    <path id="Path_225" data-name="Path 225" d="M623.782,293.606c-2.715-7.076-9.715-23.709-14.324-20.409-5.824,4.171,5.824,22.6,5.824,22.6.331,3.382-6.218,10.421-9.728,13.93v-.439a1.527,1.527,0,0,1-.153.381l-.292-.159a1.907,1.907,0,0,1-.413.757,7.426,7.426,0,0,0-.032-.757c-.674,2.855-12.436,6.472-12.436,6.472h-.865c-3.268,0-11.775-.738-15.717-7.045a34.88,34.88,0,0,0-7.712-9,6.567,6.567,0,0,0-3.656-1.386,47.038,47.038,0,0,1-21.471-7.388l-.324-.223-.07.2c-.413-.591-.814-1.221-1.189-1.869h0l-.191-.35a15.971,15.971,0,0,0,8.806-14.2v-.331a10.878,10.878,0,0,0,1.462-5.449v-1.907l2.486-2.213a10.223,10.223,0,0,0,2.893-3.471,4.115,4.115,0,0,0,.305-1.78,3.084,3.084,0,0,0-1.17-2.759c-1.907-1.316-5.086,0-6.466-1.831-.636-.827-.521-1.952-.833-2.925-.636-1.977-2.925-3.045-5.042-3.077a21.781,21.781,0,0,0-6.18,1.316,36.285,36.285,0,0,1-13.161,1.233,8.6,8.6,0,0,0-3.6.127,4.965,4.965,0,0,0-2.925,3.4,7.991,7.991,0,0,0-.28,1.742,10.961,10.961,0,0,0-2.759,7.254v4.889a10.955,10.955,0,0,0,2.639,7.115,15.9,15.9,0,0,0,6.657,11.6v.388l.083.051a26.289,26.289,0,0,1-.7,4.5v-.324s-8.9,4.737-18.438,4.851h-1.049a7.1,7.1,0,0,0-5.086,1.907c-2.823,2.658-7.769,6.86-10.808,6.86-.636,0-16.683,3.134-19.341,3.656l-4.966-4.864-.153.286-.292-.286a12.077,12.077,0,0,0-1.615.235,38.484,38.484,0,0,1-8.806-19.423s10.98-12.506,6.943-24.16C456.188,251.4,446.7,272.682,444,279.1a5.125,5.125,0,0,0-.165,3.529l8.92,28.75a13.485,13.485,0,0,0-.706,6.994h-.1l6.5,8.335a34.309,34.309,0,0,0,12.538,2.047,43.831,43.831,0,0,0,16.365-3.141h1.507l-.286.108h7.737l4.921,14.884c-.165,1.354-2.543,20.256-4.451,24.484a10.624,10.624,0,0,0-.75,4.451,33.975,33.975,0,0,0,1.418,8.615l4.311-.159-.165.337c-3.649,7.483-9.747,20.816-13.352,33.277l-6.275,12.716,4.7,57.03h.191l.362.057h0c.509.076,1.272.191,2.276.318l-.369.636-10.37,17.166s-7.394,15.138,8.965,12.283c0,0,6.046-1.755,8.513-12.08l10.758-10.09s.5-6.7-2.543-9.378c-.191-3.1-.674-12.137.07-14.312.9-2.632-3.815-32.9-3.815-32.9s17.026-35.318,27.339-36.2a5.652,5.652,0,0,1,2.232.292c8.475,2.759,18.743,23.251,21.763,29.628h0l.14.292v.057l.114.248v.07l.1.216v.057l.089.2v.045l.076.159v.064l.057.121v.051l.038.089v.108h0l.032.076,1.342,39.705h0l.133.07h.064l-.114.82-.585,4.1s7.394,15.577,6.943,17.548,4.927,9.874,12.544,7.68,3.084-14.56,3.084-14.56l-7.337-15.119-.324-.674a14.421,14.421,0,0,0,2.06-1.532s-2.238-16.232,0-19.741,2.912-19.525,2.912-19.525-1.57-10.967-4.26-15.793l-11.266-40.214c3.376,3.141,6,4.368,8.2,4.285h.362a5.475,5.475,0,0,0,2.759-.687,7.779,7.779,0,0,0,1.272-.9,2.008,2.008,0,0,0,.21-.21h0c3.134-2.632-3.586-12.945-7.394-19.074-3.669-5.913,1.386-21.979,1.768-23.175a6.065,6.065,0,0,1,1.087-.636,6.707,6.707,0,0,1,2.492-.54c3.649.127,8.138,2.225,13.695,3.281a64.609,64.609,0,0,0,11.692.909h.229c1.558,0,2.969-.032,4.114-.076a6.949,6.949,0,0,0,2.988-.807h0a9.022,9.022,0,0,0,2.124-1.717l9.753-11.018-.254.121a5.481,5.481,0,0,0,0-3.878l10.306-17.8a6.771,6.771,0,0,0,.5-5.868Z" transform="translate(-241.108 -166.485)" fill="url(#linear-gradient)"/>
    <path id="Path_226" data-name="Path 226" d="M528.345,619.1l-10.382,9.95c-2.378,10.173-8.221,11.9-8.221,11.9-15.787,2.81-8.653-12.08-8.653-12.08L511.1,611.919l1.233-2.092s7.14-2.162,11.9-.865a4.071,4.071,0,0,1,1.621.877C528.835,612.428,528.345,619.1,528.345,619.1Z" transform="translate(-261.461 -297.444)" fill="#444176"/>
    <path id="Path_227" data-name="Path 227" d="M634.8,620.391c-7.356,2.162-12.544-5.62-12.08-7.572S616,595.538,616,595.538l.56-4.044.521-3.745,12.08.865,1.138,2.391,7.083,14.909S642.156,618.23,634.8,620.391Z" transform="translate(-303.899 -289.869)" fill="#444176"/>
    <path id="Path_228" data-name="Path 228" d="M532.628,611.513c-1.138,1.952-10.363.966-14.858.356L519,609.777s7.14-2.162,11.9-.865a4.07,4.07,0,0,1,1.621.877C532.584,610.845,532.628,611.513,532.628,611.513Z" transform="translate(-268.122 -297.426)" opacity="0.1"/>
    <path id="Path_229" data-name="Path 229" d="M630.625,590.985c-6.186,4.12-12.773,1-13.765.49l.521-3.745,12.08.865Z" transform="translate(-304.212 -289.862)" opacity="0.1"/>
    <path id="Path_230" data-name="Path 230" d="M592.229,510.862c-2.162,3.459,0,19.468,0,19.468-7.14,6.491-15.57,1.729-15.57,1.729l-1.272-39.146S561.33,460.685,551.38,461.55s-26.385,35.687-26.385,35.687,4.54,29.844,3.675,32.425,0,15.138,0,15.138c-1.513,2.594-17.3,0-17.3,0l-4.54-56.236,6.027-12.55c3.465-12.283,9.352-25.432,12.875-32.807,1.748-3.669,2.918-5.906,2.918-5.906l11.508-2.4,37.353-7.744,13.421,48.854c2.594,4.756,4.107,15.57,4.107,15.57S594.391,507.4,592.229,510.862Z" transform="translate(-264.138 -231.38)" fill="#565387"/>
    <g id="Group_11" data-name="Group 11" transform="translate(242.667 195.754)" opacity="0.1">
      <path id="Path_231" data-name="Path 231" d="M606.872,551.749,605.6,512.6s-14.057-32.228-24.007-31.364a5.418,5.418,0,0,0-1.3.292c9.7,3.223,21.852,31.071,21.852,31.071l1.272,39.146a15.259,15.259,0,0,0,8.6,1.57,15.3,15.3,0,0,1-5.144-1.57Z" transform="translate(-533.56 -446.825)"/>
      <path id="Path_232" data-name="Path 232" d="M514.788,544.8l-4.54-56.236L516.3,476c3.465-12.284,9.353-25.432,12.875-32.807,1.748-3.669,2.918-5.906,2.918-5.906l11.508-2.4,34.1-7.089-.184-.68-37.372,7.769-11.508,2.4s-1.17,2.238-2.918,5.906c-3.535,7.375-9.41,20.549-12.875,32.807l-6.053,12.544,4.54,56.236s8.621,1.418,13.733,1.106A102.144,102.144,0,0,1,514.788,544.8Z" transform="translate(-506.79 -427.12)"/>
    </g>
    <path id="Path_233" data-name="Path 233" d="M471.833,338.21s-12.328.636-10.6,13.625l3.459.432,5.188-5.62,2.594-4.756V340.81Z" transform="translate(-247.471 -198.984)" fill="#ced2df"/>
    <path id="Path_234" data-name="Path 234" d="M471.833,338.21s-12.328.636-10.6,13.625l3.459.432,5.188-5.62,2.594-4.756V340.81Z" transform="translate(-247.471 -198.984)" opacity="0.1"/>
    <path id="Path_235" data-name="Path 235" d="M693.349,345.69s10.173,5.4,7.572,11.679l-3.242,1.272-4.323-2.378-.636-5.62.432-3.891Z" transform="translate(-331.841 -201.708)" fill="#ced2df"/>
    <path id="Path_236" data-name="Path 236" d="M693.349,345.69s10.173,5.4,7.572,11.679l-3.242,1.272-4.323-2.378-.636-5.62.432-3.891Z" transform="translate(-331.841 -201.708)" opacity="0.1"/>
    <rect id="Rectangle_9" data-name="Rectangle 9" width="35.471" height="26.818" rx="13.409" transform="translate(274.132 88.179)" fill="#88455e"/>
    <path id="Path_237" data-name="Path 237" d="M467.144,314.087l-7.572,12.08-.636-2.149L448.649,290.5a5.157,5.157,0,0,1,.159-3.478c2.6-6.32,11.768-27.339,15.094-17.516,3.891,11.444-6.708,23.791-6.708,23.791a38.1,38.1,0,0,0,9.047,19.8C466.8,313.75,467.144,314.087,467.144,314.087Z" transform="translate(-242.864 -173.024)" fill="#ec8c9c"/>
    <path id="Path_238" data-name="Path 238" d="M691.16,327.227s11.9-11.247,11.444-15.787c0,0-11.247-18.164-5.62-22.253,4.451-3.255,11.209,13.148,13.828,20.123a6.8,6.8,0,0,1-.451,5.722L696.145,340.2Z" transform="translate(-331.273 -180.976)" fill="#ec8c9c"/>
    <path id="Path_239" data-name="Path 239" d="M567.1,299.925s2.162,13.841-4.107,19.036,17.955,5.163,17.955,5.163l8.653-8s-9.95-9.3-6.924-16.219Z" transform="translate(-284.217 -185.031)" fill="#ec8c9c"/>
    <path id="Path_240" data-name="Path 240" d="M559.141,324.275s9.3,6.924,18.6-.865l15.138,31.363-.865,38.281s-31.364,16.219-44.34,6.275-2.162-15.138-2.162-15.138l-3.026-29.412,3.242-19.036s5.837-9.085,6.275-9.085S559.141,324.275,559.141,324.275Z" transform="translate(-276.686 -193.594)" opacity="0.1"/>
    <path id="Path_241" data-name="Path 241" d="M559.145,323.595s9.3,6.936,18.6-.865l15.138,31.363-.865,38.281s-31.364,16.219-44.34,6.275-2.162-15.138-2.162-15.138L542.493,354.1l3.242-19.036s5.837-9.085,6.275-9.085S559.145,323.595,559.145,323.595Z" transform="translate(-276.69 -193.346)" fill="#ebf1f6"/>
    <path id="Path_242" data-name="Path 242" d="M530.217,319s-8.818,5.023-18.393,4.775a6.777,6.777,0,0,0-4.889,1.869c-2.727,2.619-7.5,6.765-10.459,6.765-.636,0-19.036,3.675-19.036,3.675l-4.864-4.864s-7.248,14.165-10.707,13.517l6.275,8.221s11.9,5.188,27.466-1.081H504.7l4.756,14.706s-2.378,19.9-4.323,24.224.636,12.76.636,12.76l17.084-.636s.865-8.437,2.162-9.537-4.54-38.281-4.54-38.281-3.891-20.981,10.382-28.547Z" transform="translate(-247.763 -191.987)" opacity="0.1"/>
    <path id="Path_243" data-name="Path 243" d="M550.98,439.38a56.464,56.464,0,0,0-1.341,7.8l-13.078.5c1.748-3.669,2.918-5.906,2.918-5.906Z" transform="translate(-274.966 -235.831)" opacity="0.1"/>
    <path id="Path_244" data-name="Path 244" d="M473.168,340.528l-7.572,12.08-.636-2.149c2.778-2.759,6.034-8.526,7.331-10.929A12.823,12.823,0,0,0,473.168,340.528Z" transform="translate(-248.888 -199.465)" opacity="0.1"/>
    <path id="Path_245" data-name="Path 245" d="M529.959,319s-9.257,5.023-18.826,4.775a6.778,6.778,0,0,0-4.889,1.869c-2.727,2.619-7.5,6.765-10.459,6.765-.636,0-19.036,3.675-19.036,3.675l-4.883-4.87s-7.248,14.165-10.707,13.517l6.275,8.221s11.9,5.188,27.466-1.081h9.085l4.756,14.7s-2.378,19.9-4.323,24.224.636,12.76.636,12.76l17.084-.636s.865-8.437,2.162-9.537-4.539-38.281-4.539-38.281-3.891-20.981,10.382-28.547Z" transform="translate(-247.504 -191.987)" fill="#ced2df"/>
    <path id="Path_246" data-name="Path 246" d="M596.922,316.94a42.087,42.087,0,0,0,20.606,7.5,6.263,6.263,0,0,1,3.529,1.367,34.154,34.154,0,0,1,7.445,8.9c4.756,7.788,16.435,6.924,16.435,6.924s11.355-3.567,12-6.358c0,0,.324,15.259,7.464,11.571l-9.391,10.821a6.625,6.625,0,0,1-4.737,2.282,69.624,69.624,0,0,1-14.833-.82c-7.788-1.513-13.409-5.188-17.516-1.946,0,0-5.4,16.867-1.729,22.927s10.173,16.219,7.14,18.819-6.708,2.378-12.76-3.891-6.708-16.867-6.708-16.867l1.513-27.25s-5.836-20.549-11.444-24.656Z" transform="translate(-295.864 -191.237)" opacity="0.1"/>
    <path id="Path_247" data-name="Path 247" d="M665.744,346.694l-9.416,10.866a6.619,6.619,0,0,1-2.27,1.691h0a6.594,6.594,0,0,1-2.454.579,68.8,68.8,0,0,1-14.833-.82c-7.286-1.418-12.678-4.724-16.709-2.492a5.909,5.909,0,0,0-.814.54s-5.4,16.867-1.729,22.927,10.173,16.219,7.14,18.819a6.992,6.992,0,0,1-1.691,1.1c-2.721,1.227-6.1.165-11.069-4.991-6.053-6.275-6.708-16.867-6.708-16.867L606.7,350.8s-5.837-20.549-11.444-24.656l2.473-8.869c1.7,1.157,10.211,6.593,20.727,7.286a6.263,6.263,0,0,1,3.529,1.367,34.182,34.182,0,0,1,7.445,8.9c4.756,7.788,16.435,6.924,16.435,6.924a63.12,63.12,0,0,0,8.183-3.255h0a12.473,12.473,0,0,0,3.815-2.543,1.907,1.907,0,0,0,.413-.763S658.61,350.369,665.744,346.694Z" transform="translate(-296.345 -191.357)" opacity="0.1"/>
    <path id="Path_248" data-name="Path 248" d="M665.053,346.794l-9.41,10.878a6.618,6.618,0,0,1-1.831,1.475h0a6.6,6.6,0,0,1-2.886.795,68.8,68.8,0,0,1-14.833-.82c-7.026-1.367-12.3-4.5-16.27-2.708a5.884,5.884,0,0,0-1.272.757s-5.4,16.867-1.729,22.927,10.173,16.219,7.14,18.819a7.5,7.5,0,0,1-1.272.884c-2.8,1.545-6.256.636-11.5-4.775-6.053-6.275-6.708-16.867-6.708-16.867l1.513-27.25s-5.836-20.549-11.444-24.656l2.594-9.3.312.216c1.7,1.157,10.211,6.593,20.727,7.286a6.262,6.262,0,0,1,3.529,1.367,34.179,34.179,0,0,1,7.445,8.9c4.756,7.788,16.435,6.924,16.435,6.924a63.119,63.119,0,0,0,8.183-3.255h0c1.965-1,3.567-2.1,3.815-3.109v.547C657.779,338.452,658.733,350.043,665.053,346.794Z" transform="translate(-296.086 -191.241)" fill="#ced2df"/>
    <path id="Path_249" data-name="Path 249" d="M585.745,300.45H569.85a38.892,38.892,0,0,1,.3,7.63,16.34,16.34,0,0,0,16.8,1.208C585.42,306.465,584.492,303.26,585.745,300.45Z" transform="translate(-287.09 -185.231)" opacity="0.1"/>
    <circle id="Ellipse_18" data-name="Ellipse 18" cx="15.787" cy="15.787" r="15.787" transform="translate(276.618 93.913)" fill="#ec8c9c"/>
    <path id="Path_250" data-name="Path 250" d="M572.777,274.671c1.761-.21,3.522-.833,5.258-.483,1.577.318,2.918,1.405,4.495,1.736,3.039.636,5.862-1.6,8.157-3.688l4.959-4.514a10.121,10.121,0,0,0,2.8-3.421,3.433,3.433,0,0,0-.839-4.044c-1.812-1.272-4.934,0-6.243-1.806-.591-.814-.5-1.907-.807-2.88-.636-1.946-2.823-3.007-4.87-3.033a21.544,21.544,0,0,0-5.964,1.272A34.332,34.332,0,0,1,567,255.026a8.125,8.125,0,0,0-3.478.121A4.864,4.864,0,0,0,560.7,258.5c-.979,3.459.693,9.035,2.372,12.131S569.427,275.085,572.777,274.671Z" transform="translate(-283.653 -167.782)" opacity="0.1"/>
    <path id="Path_251" data-name="Path 251" d="M572.777,273.991c1.761-.21,3.522-.833,5.258-.483,1.577.318,2.918,1.405,4.495,1.736,3.039.636,5.862-1.6,8.157-3.688l4.959-4.514a10.121,10.121,0,0,0,2.8-3.421,3.433,3.433,0,0,0-.839-4.044c-1.812-1.272-4.934,0-6.243-1.806-.591-.814-.5-1.907-.807-2.88-.636-1.946-2.823-3.007-4.87-3.033a21.544,21.544,0,0,0-5.964,1.272A34.332,34.332,0,0,1,567,254.346a8.126,8.126,0,0,0-3.478.121,4.864,4.864,0,0,0-2.823,3.351c-.979,3.459.693,9.035,2.372,12.131S569.427,274.373,572.777,273.991Z" transform="translate(-283.653 -167.534)" fill="#88455e"/>
    <path id="Path_252" data-name="Path 252" d="M536.55,394s3.459.432,5.188,2.594a9.32,9.32,0,0,0,4.756,2.81" transform="translate(-274.962 -219.303)" opacity="0.1"/>
    <path id="Path_253" data-name="Path 253" d="M487.489,349.09s2.823,6.3,1.081,6.936-1.081,5.188-1.081,5.188" transform="translate(-257.049 -202.946)" opacity="0.1"/>
    <g id="Group_12" data-name="Group 12" transform="translate(231.216 127.114)" opacity="0.1">
      <path id="Path_254" data-name="Path 254" d="M488.977,338.764s18.381-3.675,19.016-3.675c2.963,0,7.731-4.145,10.459-6.765a6.676,6.676,0,0,1,2.963-1.647h-.235a6.777,6.777,0,0,0-4.889,1.869c-2.728,2.619-7.5,6.765-10.459,6.765-.515,0-12.277,2.333-17.052,3.281Z" transform="translate(-488.78 -321.897)"/>
      <path id="Path_255" data-name="Path 255" d="M561.339,319.967v-.807a45.893,45.893,0,0,1-14.089,4.508A43.539,43.539,0,0,0,561.339,319.967Z" transform="translate(-510.075 -319.16)"/>
      <path id="Path_256" data-name="Path 256" d="M527.519,422.21s-2.594-8.437-.636-12.76,4.323-24.224,4.323-24.224l-4.743-14.706h-9.111l-.553.216h7.471l4.737,14.712s-2.378,19.9-4.323,24.224.636,12.76.636,12.76L542.4,421.8v-.134Z" transform="translate(-498.985 -337.866)"/>
    </g>
    <g id="Group_13" data-name="Group 13" transform="translate(308.611 155.566)" opacity="0.1">
      <path id="Path_257" data-name="Path 257" d="M629.991,429.238a7.5,7.5,0,0,1-1.272.884c-2.8,1.545-6.256.636-11.5-4.775-4.807-4.978-6.205-12.716-6.58-15.647l-.127,2.238s.636,10.6,6.708,16.867c5.245,5.43,8.7,6.32,11.5,4.775a7.5,7.5,0,0,0,1.272-.884c.909-.782.96-2.251.483-4.082A2,2,0,0,1,629.991,429.238Z" transform="translate(-610.51 -380.587)"/>
      <path id="Path_258" data-name="Path 258" d="M674.149,364.222l-6.123,7.076a6.618,6.618,0,0,1-1.831,1.475h0a6.6,6.6,0,0,1-2.886.795,68.8,68.8,0,0,1-14.833-.82c-7.025-1.367-12.3-4.5-16.27-2.708a5.877,5.877,0,0,0-1.272.757s-3.49,10.9-2.956,18.317a71.529,71.529,0,0,1,2.956-14.858,5.88,5.88,0,0,1,1.272-.757c3.98-1.787,9.244,1.342,16.27,2.708a69.609,69.609,0,0,0,14.833.82,6.6,6.6,0,0,0,2.886-.795h0a6.618,6.618,0,0,0,1.831-1.456l9.416-10.866a3.707,3.707,0,0,1-3.293.312Z" transform="translate(-616.852 -363.91)"/>
    </g>
    <path id="Path_259" data-name="Path 259" d="M265.74,486.89a.49.49,0,0,0,.579.076,1.972,1.972,0,0,1-.579-.076Z" transform="translate(-176.33 -253.135)" fill="url(#linear-gradient-2)"/>
    <path id="Path_260" data-name="Path 260" d="M279.3,302.933c-1.144-.331-2.778-.871-4.743-1.558a24.873,24.873,0,0,0,4.393-8.85l-.165.064c.057-.2.114-.388.165-.591-3.77,1.532-7.941-1.062-10.6-4.393s-4.451-7.464-7.362-10.529a33.7,33.7,0,0,0-3.9-3.363,5.4,5.4,0,0,0-2.829-1.386c-1.7-.051-3.026,1.615-4.66,2.1a6.358,6.358,0,0,1-3.249-.121c-4.215-.966-8.265-2.753-12.57-3.223a14.731,14.731,0,0,0-6.822.769c-2.162.82-3.147,2.454-4.9,3.764-1.907,1.405-5.633,1.373-7.852,1.621a56.266,56.266,0,0,1-8.113.337,18.991,18.991,0,0,0-4.667.172c-3.223.706-5.811,3.268-8.227,5.722a4.241,4.241,0,0,0-1.361,2.13,2.689,2.689,0,0,0,0,.706,4.584,4.584,0,0,0,.324,1.876,24.8,24.8,0,0,0,3.122,6.212,17.938,17.938,0,0,1,2.7,4.412,8.564,8.564,0,0,1,.413,2.543,18.5,18.5,0,0,1-.286,2.734,34.333,34.333,0,0,1-2.092,7.28,13.224,13.224,0,0,0-1.221,3.815,6.078,6.078,0,0,0,0,.814c-.159,4.2,4.075,7.216,4.9,11.387a6.8,6.8,0,0,1,.121,1.049,7.1,7.1,0,0,1-3.758,6.154c.191.076.388.14.585.2a5.3,5.3,0,0,1-.585.318,11.863,11.863,0,0,0,1.221.394,28.356,28.356,0,0,0-6.173,7.629c-7.356,13.695-57.177,40.519-57.177,40.519l.738.42-.6.388c-4.311,2.867-14.426,11.228-5.283,21.8,0,0,7.14-11.266,12.144-16.066.223-.216.445-.413.636-.6a1.462,1.462,0,0,1,.191,1.157l32.756-18.406s11.641-8.151,14.89-9.988a26.8,26.8,0,0,1,7.382-3.179l-.381.159a14.954,14.954,0,0,1,3.758-.534c5.8.089,12.08,4.336,14.146,21.153,2.772,22.52,1.488,26.582.6,27.135a1.633,1.633,0,0,1-.324-.057.554.554,0,0,0,.089.064,1.7,1.7,0,0,1-.356-.064.509.509,0,0,0,.483.114.451.451,0,0,0,.362-.045h0a3.77,3.77,0,0,0,.439,0,4.674,4.674,0,0,1-.045.636c-.045,0-.261.121,0,.134h0c-.07,1.272-.064,2.651,0,4.094-2.88.159-5.76.331-8.265.483l.223-1.189.1-.534c2.213-.178,4.311-.827,4.559-2.619.54-3.942-4.87-6.046-9.473-6.307s-32.209,1.577-32.209,1.577-4.139,5.36,8.99,6.994l1.214.636a145.93,145.93,0,0,1,15.462,10.986l.464.369-1.5,1.221c8.119,1.837,15.971,32.864,20.3,47.048s13.8,13.669,21.655,11.565c7.356-1.971,8.265-23.333,8.386-26.016V455.9l13.085,16.162.992,1.227q.572.3,1.132.56c9.906,4.711,20.848-4.323,17.739-14.623-3.147-10.382-8.03-25.737-11.285-32.228-2.728-5.436-6.25-14.464-8.386-20.116a6.787,6.787,0,0,0,.807-.388s-.051-.254-.134-.718l.134-.07s-3.179-16.353-3.319-27.975v-1.011c2.365-.54,3.866-.75,3.866-.75l.044-.509-.273.057,1.316-15.062s4.832-10.281,1.132-14.56a8.99,8.99,0,0,1-2.168-4.451c-.636-3.936,0-10.5,8.615-15.958,13.263-8.411,18.438-15.259,18.438-15.259S287.422,305.324,279.3,302.933Zm-26.341,10.452v-6.962c2.46-.121,4.972.165,7.445,0a18.84,18.84,0,0,0,3.592-.6l.6.413a65.486,65.486,0,0,1-11.635,7.153ZM215.356,422.512c.973.674,1.952,1.373,2.912,2.079.6,3.433,1.125,5.856,1.163,6.027A47.6,47.6,0,0,0,215.356,422.512Z" transform="translate(-125.1 -174.496)" fill="url(#linear-gradient-3)"/>
    <path id="Path_261" data-name="Path 261" d="M282.779,500.32l-.572,3.109-.439,2.378-.8,4.349-7.769,5.436s-.7-.6-1.857-1.545a136.173,136.173,0,0,0-14.788-10.808,16.531,16.531,0,0,0-4.063-1.876Z" transform="translate(-171.504 -258.026)" fill="#ffbdc6"/>
    <path id="Path_262" data-name="Path 262" d="M282.775,500.32l-.572,3.109a24.16,24.16,0,0,1-5.124-.261l-18.126.261c-.858-.051-1.659-.121-2.41-.2a16.532,16.532,0,0,0-4.063-1.876Z" transform="translate(-171.501 -258.026)" opacity="0.1"/>
    <path id="Path_263" data-name="Path 263" d="M273.476,499.08s9.066,1.551,9.581-2.333-4.66-5.932-9.054-6.224-30.823,1.564-30.823,1.564-4.66,6.212,12.169,7.248Z" transform="translate(-167.898 -254.446)" fill="#7679b4"/>
    <path id="Path_264" data-name="Path 264" d="M282.779,500.32l-.572,3.109-.439,2.378-.8,4.349-7.769,5.436s-.7-.6-1.857-1.545a136.173,136.173,0,0,0-14.788-10.808,16.531,16.531,0,0,0-4.063-1.876Z" transform="translate(-171.504 -258.026)" opacity="0.1"/>
    <path id="Path_265" data-name="Path 265" d="M282.775,500.32l-.572,3.109a24.16,24.16,0,0,1-5.124-.261l-18.126.261c-.858-.051-1.659-.121-2.41-.2a16.532,16.532,0,0,0-4.063-1.876Z" transform="translate(-171.501 -258.026)" opacity="0.1"/>
    <path id="Path_266" data-name="Path 266" d="M273.476,499.08s9.066,1.551,9.581-2.333-4.66-5.932-9.054-6.224-30.823,1.564-30.823,1.564-4.66,6.212,12.169,7.248Z" transform="translate(-167.898 -254.446)" opacity="0.1"/>
    <rect id="Rectangle_10" data-name="Rectangle 10" width="47.385" height="56.191" transform="translate(77.998 116.961)" fill="#a66477"/>
    <rect id="Rectangle_11" data-name="Rectangle 11" width="47.385" height="56.191" transform="translate(77.998 116.961)" opacity="0.1"/>
    <path id="Path_267" data-name="Path 267" d="M150.091,451.827a7.591,7.591,0,0,0-2.886,2.041c-4.787,4.73-11.616,15.825-11.616,15.825-8.748-10.414.935-18.648,5.086-21.477,1-.687,1.678-1.055,1.678-1.055Z" transform="translate(-127.636 -238.665)" fill="#ffbdc6"/>
    <path id="Path_268" data-name="Path 268" d="M284.93,331.09s2.333,16.314,10.357,20.2-10.357,11.133-10.357,11.133L259.81,353.1s14.242-4.66,11.393-18.387Z" transform="translate(-174.17 -196.391)" fill="#ffbdc6"/>
    <path id="Path_269" data-name="Path 269" d="M239.649,485.45l-.572,3.109-.439,2.378-.8,4.349-7.769,5.436s-.7-.6-1.856-1.545a136.186,136.186,0,0,0-14.788-10.808,16.53,16.53,0,0,0-4.063-1.876Z" transform="translate(-155.796 -252.61)" fill="#ffbdc6"/>
    <path id="Path_270" data-name="Path 270" d="M239.645,485.45l-.572,3.109a24.162,24.162,0,0,1-5.124-.261l-18.126.261c-.858-.051-1.659-.121-2.41-.2a16.53,16.53,0,0,0-4.063-1.876Z" transform="translate(-155.792 -252.61)" opacity="0.1"/>
    <path id="Path_271" data-name="Path 271" d="M230.3,484.211s9.066,1.551,9.581-2.333-4.66-5.957-9.066-6.212S200,477.217,200,477.217s-4.66,6.212,12.169,7.248Z" transform="translate(-152.172 -249.038)" fill="#7679b4"/>
    <path id="Path_272" data-name="Path 272" d="M249.4,493.984l-.8,4.349-7.769,5.436s-.7-.6-1.856-1.545l10.274-8.424Z" transform="translate(-166.58 -255.651)" opacity="0.1"/>
    <path id="Path_273" data-name="Path 273" d="M300.085,546.666q-.534-.261-1.081-.553l-.947-1.208L285.545,529.01v.28c-.083,2.639-.985,23.683-8.017,25.622-7.509,2.073-16.575,2.588-20.714-11.393s-11.654-44.537-19.423-46.349l11.52-9.454s7.629,8.9,10.745,17.471c-.114-.547-5.385-25.158-1.036-29.507h37.8s5.824,16.62,9.842,24.859c3.115,6.4,7.788,21.515,10.808,31.745A12.16,12.16,0,0,1,300.085,546.666Z" transform="translate(-166.005 -249.052)" fill="#7679b4"/>
    <path id="Path_274" data-name="Path 274" d="M310.171,462.24c-5.83,3.452-31.465,2.047-39.819,1.488l-2.27-.165c-.248,0,.038-.14.038-.14l.235-2.352,6.212-15.793L307.844,426a28.8,28.8,0,0,0-.846,8.7C307.164,446.135,310.171,462.24,310.171,462.24Z" transform="translate(-177.146 -230.958)" opacity="0.1"/>
    <path id="Path_275" data-name="Path 275" d="M310.014,461.037c-5.83,3.452-31.465,2.047-39.819,1.488l-2.27-.165h-.375l.413-.108,2.047-.54,4.4-17.611,33.277-19.29a28.794,28.794,0,0,0-.846,8.7C307.007,444.926,310.014,461.037,310.014,461.037Z" transform="translate(-176.989 -230.524)" fill="#f2f1f2"/>
    <path id="Path_276" data-name="Path 276" d="M307.06,433.456c-6.765,1.558-21.655,6.142-27.377,17.166-3.815,7.362-6.994,10.522-9.263,11.845l-2.27-.165.038-.14,2.047-.54,4.4-17.611,33.277-19.29A28.8,28.8,0,0,0,307.06,433.456Z" transform="translate(-177.208 -230.492)" opacity="0.1"/>
    <path id="Path_277" data-name="Path 277" d="M147.248,447.17l7.769,4.66a7.591,7.591,0,0,0-2.886,2.041c-.636-1.907-4.718-4.527-6.561-5.646C146.575,447.539,147.248,447.17,147.248,447.17Z" transform="translate(-132.563 -238.668)" opacity="0.1"/>
    <path id="Path_278" data-name="Path 278" d="M265.687,484.3a.464.464,0,0,1-.547-.07A1.87,1.87,0,0,0,265.687,484.3Z" transform="translate(-176.112 -252.166)" opacity="0.1"/>
    <path id="Path_279" data-name="Path 279" d="M239.612,338.554s-6.994.776-11.915-4.4c0,0-20.714,5.957-27.708,19.423s-54.64,39.877-54.64,39.877,8.265,4.66,7.509,6.994l31.332-18.126s11.133-8.03,14.242-9.842,20.2-12.945,23.823,17.351,0,26.7,0,26.7,5.182,1.812,12.716-12.716,30.817-17.866,30.817-17.866l1.272-15.259s4.622-10.122,1.081-14.343a8.965,8.965,0,0,1-2.073-4.381c-.591-3.878,0-10.344,8.265-15.717,12.716-8.265,17.611-15.017,17.611-15.017s.261-4.921-7.509-7.248-39.362-15.017-39.362-15.017l-1.036,4.4L268.9,320.981s-12.43,10.1-22.253,9.842C246.606,330.779,248.418,338.294,239.612,338.554Z" transform="translate(-132.483 -184.692)" fill="#565388"/>
    <path id="Path_280" data-name="Path 280" d="M292.3,338.618a50.868,50.868,0,0,1-1.431-6.358l-13.727,3.649a15.132,15.132,0,0,1-.312,7.916,14.763,14.763,0,0,0,15.469-5.213Z" transform="translate(-180.369 -196.817)" opacity="0.1"/>
    <circle id="Ellipse_19" data-name="Ellipse 19" cx="14.763" cy="14.763" r="14.763" transform="translate(85.767 117.215)" fill="#ffbdc6"/>
    <path id="Path_281" data-name="Path 281" d="M272.554,273.925c4.094.464,7.992,2.225,12.023,3.179a5.938,5.938,0,0,0,3.109.121c1.564-.483,2.836-2.124,4.451-2.073a4.678,4.678,0,0,1,2.708,1.367,32.5,32.5,0,0,1,3.732,3.312c2.778,3.02,4.508,7.089,7.045,10.37s6.536,5.837,10.141,4.33c-2.448,9.537-10.484,16.829-19.169,17.421-3.465.235-6.994-.483-10.37.534a9.079,9.079,0,0,1-2.619.636c-1.907,0-3.484-1.774-4.692-3.5-2.823-4.056-5.086-8.659-8.265-12.353a6.757,6.757,0,0,0-3.77-2.607,6.982,6.982,0,0,0-4.171,1.17,19.8,19.8,0,0,0-6.1,4.234,8.464,8.464,0,0,0-2.06,7.445c.375,1.411,1.24,2.683,1.272,4.164,0,2.352-2.047,4.075-2.46,6.358a24.538,24.538,0,0,0-.1,2.9c-.184,3.141-2.232,5.722-4.381,7.687a5.529,5.529,0,0,0-2,2.778c-.165.807,0,1.666-.108,2.486-.312,2.041-2.346,3.071-4.145,3.338a12.017,12.017,0,0,1-6.218-.738c2.543-1.189,4.063-4.578,3.478-7.629-.8-4.2-5.023-7.216-4.667-11.5a13.307,13.307,0,0,1,1.17-3.783,34.619,34.619,0,0,0,2-7.172,12.15,12.15,0,0,0-.121-5.722,18.065,18.065,0,0,0-2.581-4.349,24.681,24.681,0,0,1-2.988-6.123,4.291,4.291,0,0,1-.286-2.022,4.19,4.19,0,0,1,1.272-2.1c2.314-2.422,4.794-4.946,7.871-5.646a17.649,17.649,0,0,1,4.451-.172,52.294,52.294,0,0,0,7.763-.331c2.124-.248,5.722-.216,7.515-1.6,1.672-1.272,2.619-2.893,4.686-3.707A13.714,13.714,0,0,1,272.554,273.925Z" transform="translate(-164.179 -175.523)" opacity="0.1"/>
    <path id="Path_282" data-name="Path 282" d="M308.48,513.76s8.545,16.829,5.957,22.011" transform="translate(-191.896 -262.921)" opacity="0.1"/>
    <path id="Path_283" data-name="Path 283" d="M325.623,573.459l-12.512-15.895v.28s-.725-5.137,1.659-3.408c5.22,3.777,13.574,9.969,13.752,11.037S326.831,570.827,325.623,573.459Z" transform="translate(-193.545 -277.606)" opacity="0.1"/>
    <g id="Group_14" data-name="Group 14" transform="translate(13.128 114.233)" opacity="0.1">
      <path id="Path_284" data-name="Path 284" d="M303.649,348.88s1.055,4.374-2.359,6.561c5.258-.9,5.487-4.991,5.328-6.771A16.565,16.565,0,0,1,303.649,348.88Z" transform="translate(-202.406 -317.027)"/>
      <path id="Path_285" data-name="Path 285" d="M148.615,412.818s47.646-26.411,54.64-39.877c5.016-9.664,17.1-15.456,23.524-17.961-4.686,1.57-20.453,7.591-26.379,19-6.994,13.466-54.64,39.877-54.64,39.877Z" transform="translate(-145.76 -319.325)"/>
      <path id="Path_286" data-name="Path 286" d="M312.791,328.7c8.106-2.543,15.857-8.818,15.857-8.818L303.788,302.27l.566-2.416-2.378-.954-1.036,4.4L325.8,320.911A59.987,59.987,0,0,1,312.791,328.7Z" transform="translate(-202.278 -298.9)"/>
      <path id="Path_287" data-name="Path 287" d="M319.83,437.933a61.6,61.6,0,0,1,9.747-2.461l.044-.5a65.965,65.965,0,0,0-9.791,2.963Z" transform="translate(-209.158 -348.458)"/>
      <path id="Path_288" data-name="Path 288" d="M260.4,455.046h-.229a.464.464,0,0,1-.547-.07,1.909,1.909,0,0,0,.547.07c.852-.5,2.13-4.361-.547-26.741-2.861-23.893-14.089-22.017-20.237-19.271,6.282-1.729,14.928-.235,17.389,20.307,2.677,22.38,1.4,26.252.547,26.741A5.722,5.722,0,0,0,260.4,455.046Z" transform="translate(-179.861 -338.442)"/>
      <path id="Path_289" data-name="Path 289" d="M267.287,483.9a1.9,1.9,0,0,1-.547-.07A.464.464,0,0,0,267.287,483.9Z" transform="translate(-189.822 -366.254)"/>
    </g>
    <path id="Path_290" data-name="Path 290" d="M272.554,273.135c4.094.464,7.992,2.225,12.023,3.179a5.938,5.938,0,0,0,3.109.121c1.564-.483,2.836-2.124,4.451-2.073a4.679,4.679,0,0,1,2.708,1.367,32.5,32.5,0,0,1,3.732,3.313c2.778,3.02,4.508,7.089,7.045,10.37s6.536,5.837,10.141,4.33c-2.448,9.537-10.484,16.829-19.169,17.421-3.465.235-6.994-.483-10.37.534a9.079,9.079,0,0,1-2.619.636c-1.907,0-3.484-1.774-4.692-3.5-2.823-4.056-5.086-8.659-8.265-12.353a6.756,6.756,0,0,0-3.77-2.607,6.982,6.982,0,0,0-4.171,1.17,19.8,19.8,0,0,0-6.1,4.234,8.464,8.464,0,0,0-2.06,7.445c.375,1.411,1.24,2.683,1.272,4.164,0,2.352-2.047,4.075-2.461,6.358a24.539,24.539,0,0,0-.1,2.9c-.184,3.141-2.232,5.722-4.381,7.687a5.529,5.529,0,0,0-2,2.778c-.165.807,0,1.666-.108,2.486-.312,2.041-2.346,3.071-4.145,3.338a12.017,12.017,0,0,1-6.218-.737c2.543-1.189,4.063-4.578,3.478-7.629-.8-4.2-5.023-7.216-4.667-11.5a13.307,13.307,0,0,1,1.17-3.783,34.619,34.619,0,0,0,2-7.172,12.15,12.15,0,0,0-.121-5.722,18.065,18.065,0,0,0-2.581-4.349,24.682,24.682,0,0,1-2.988-6.123,4.292,4.292,0,0,1-.286-2.022,4.19,4.19,0,0,1,1.272-2.1c2.314-2.422,4.794-4.946,7.871-5.646a17.65,17.65,0,0,1,4.451-.172,52.286,52.286,0,0,0,7.763-.331c2.124-.248,5.722-.216,7.515-1.6,1.672-1.272,2.619-2.893,4.686-3.707A13.714,13.714,0,0,1,272.554,273.135Z" transform="translate(-164.179 -175.236)" fill="#a66477"/>
    <path id="Path_291" data-name="Path 291" d="M881.407,211.588h0v-.235a.536.536,0,0,0-.038-.242h-.1v-.528c-.254-5.894-8.405-18.438-11.673-14.776-2.861,3.217,1.456,11.355,3.656,15.017l.2.331-.108-.07s-9.1,27.135-10.173,28.191-8.564,22.393-18.438,24.8c-1.952.464-3.573.884-4.934,1.272l.108-.362a39.332,39.332,0,0,0,1.736-6.358c.318-2.314,0-5.118-1.17-6.243-.572-.559-1.272-.636-1.742-1.526a7.044,7.044,0,0,1-.483-2.448l-.839-10.287.585-.178c3.535-1.132,6.962-3.815,7.362-7.426a3.807,3.807,0,0,1-.375.121,6.438,6.438,0,0,0,.108-.636c-2.969,1.17-5.722-1.907-8.583-3.287-4.711-2.308-10.1-.134-14.96.394-5.512.6-10.745-1.685-16.378-1.272-3.065.235-6.472,2.314-6.307,5.334.1,1.659,1.272,3.064,1.755,4.654,1.221,3.847-1.494,7.706-3.872,10.986-1.564,2.155-3.065,4.781-3.331,7.312-5.474-5.722-11.393-12.334-12.08-14.82L765.49,212.166s-.375.4-.979.992c-.1-.292-.21-.636-.337-.979-2.022-5.665-7.744-19.392-15-16.874s3.007,16.588,7.471,22.2l.636.776a2.009,2.009,0,0,1-1.132-.051l17.662,30.3s3.211,5.8,6.154,7.375c0,0,21.941,27.663,22.208,33.195s9.867,20.288,9.867,20.288,3.211,23.976-2.41,28.191h.928q-.4.391-.82.858c-4.164,4.616-9.486,14.509-2.213,31.332,10.7,24.8,12.309,34.511,12.309,34.511s-20.345,1.055-24.351,1.844c-3.548.7-17.338,1.189-20.491,1.272-1.125-1.31-4.451-4.209-8.939,0-5.62,5.271-9.632,22.888-9.632,22.888s-2.143,14.229,5.086,10.535c0,0,8.564-11.857,10.967-12.385,1.2-.261,2.461-2.022,3.427-3.719l.051.032h0c.057,0,.292-.127.674-.28h0c1.78-.706,6.682-2.4,10.548-1.558,2.117.464,11.2.572,20.714.547-2.149,5.15-6,18.438-6,18.438s-1.609,12.391,3.732,11.883c3.815-.375,9.664-10.122,12.716-15.685,2.213-1.621,8.551-7.432,13.237-6.994l31.573-12.118s7.49-4.215,3.478-18.177c-3.179-11.1-12.226-33.824-15.8-42.681h0l-.108-.229c-.865-2.143-1.386-3.414-1.386-3.414h0a52.256,52.256,0,0,1-2.867-12.531c-.032-.337-.057-.68-.083-1.017a5.619,5.619,0,0,0,1.24-.718s-2.944-29.768,0-32.934h0l.051-.057h0v-.038h0l.051-.064h0l.114-.146h0l.14-.178h0c.159-.21.35-.47.566-.788h0c1.685-2.467,4.826-8.1,3.923-14.75h0q-.057-.432-.14-.871h0a18.165,18.165,0,0,0-1.831-5.163,14.321,14.321,0,0,1-.235-2.041v-1.806a6.118,6.118,0,0,1,.1-.916v-.114a1.139,1.139,0,0,1,.057-.35v-.146a1.664,1.664,0,0,1,.076-.343v-.121c.038-.153.076-.305.127-.458v-.076q.057-.191.127-.375l.057-.146.127-.305.064-.153c.051-.114.108-.229.165-.343l.044-.1q.114-.21.242-.413l.07-.108.21-.3.1-.134.223-.267.1-.114c.114-.121.229-.242.356-.356,3.478-3.179,19-26.608,19-26.608s3.745-5.271,3.745-8.691C875.456,240.357,882.075,218.3,881.407,211.588ZM839.744,408.524c-.381-3.611-.763-8.087-1.113-12.716l6.053,9.435S844.112,408.117,839.744,408.524Z" transform="translate(-351.484 -146.825)" fill="url(#linear-gradient-4)"/>
    <path id="Path_292" data-name="Path 292" d="M783.113,526.152s-3.624-5.722-9.066-.515-9.321,22.526-9.321,22.526-2.073,13.987,4.921,10.357c0,0,8.265-11.654,10.618-12.169s4.921-6.994,4.921-6.994Z" transform="translate(-357.961 -266.45)" fill="#493545"/>
    <path id="Path_293" data-name="Path 293" d="M847.211,549s-4.921-2.333-6.472-.515-6.733,19.938-6.733,19.938-1.551,11.915,3.624,11.393,14.242-19.175,14.242-19.175Z" transform="translate(-383.219 -275.315)" fill="#493545"/>
    <path id="Path_294" data-name="Path 294" d="M847.211,549s-4.921-2.333-6.472-.515-6.733,19.938-6.733,19.938-1.551,11.915,3.624,11.393,14.242-19.175,14.242-19.175Z" transform="translate(-383.219 -275.315)" opacity="0.05"/>
    <path id="Path_295" data-name="Path 295" d="M870.484,476.228l11.133,17.351s-.776,3.885-7.509,3.109l-23.047,14.5s-2,17.656,4.4,16.054c1.036-.261,8.265-7.769,13.466-7.248l30.562-11.915s7.248-4.145,3.363-17.866-16.728-45.535-16.728-45.535l-20.3,11.355Z" transform="translate(-389.402 -237.761)" fill="#3e3d77"/>
    <path id="Path_296" data-name="Path 296" d="M870.484,476.228l11.133,17.351s-.776,3.885-7.509,3.109l-23.047,14.5s-2,17.656,4.4,16.054c1.036-.261,8.265-7.769,13.466-7.248l30.562-11.915s7.248-4.145,3.363-17.866-16.728-45.535-16.728-45.535l-20.3,11.355Z" transform="translate(-389.402 -237.761)" opacity="0.05"/>
    <path id="Path_297" data-name="Path 297" d="M854.726,491.162c1.551,9.842-7.248,10.618-7.248,10.618s-39.622.776-44.283-.261-10.878,1.812-10.878,1.812c-8.03-4.921-1.551-17.09-1.551-17.09s16.575-.515,20.46-1.272,23.562-1.831,23.562-1.831-1.551-9.581-11.915-33.919c-7.038-16.531-1.907-26.258,2.143-30.791a17.053,17.053,0,0,1,3.554-3.128l31.853,1.551a41.311,41.311,0,0,0,.178,4.813,51.257,51.257,0,0,0,4.228,15.895c-1.812,0-13.466,10.878-13.466,10.878S853.168,481.327,854.726,491.162Z" transform="translate(-366.651 -227.061)" fill="#3e3d77"/>
    <path id="Path_298" data-name="Path 298" d="M793.094,487.289s16.575-.515,20.46-1.272,23.562-1.812,23.562-1.812-1.551-9.581-11.915-33.919c-7.038-16.531-1.907-26.258,2.143-30.791a17.05,17.05,0,0,1,3.554-3.128l29.513,1.437v-.922l-31.853-1.551A17.052,17.052,0,0,0,825,418.458c-4.031,4.54-9.181,14.261-2.143,30.791,10.389,24.319,11.927,33.9,11.927,33.9s-19.709,1.036-23.562,1.812-20.46,1.272-20.46,1.272-6.472,12.175,1.551,17.115c0,0,.242-.114.636-.28C787.62,497.582,793.094,487.289,793.094,487.289Z" transform="translate(-366.652 -227.072)" opacity="0.1"/>
    <rect id="Rectangle_12" data-name="Rectangle 12" width="16.054" height="40.652" transform="translate(457.774 93.195)" fill="#493545"/>
    <rect id="Rectangle_13" data-name="Rectangle 13" width="16.054" height="40.652" transform="translate(457.774 93.195)" opacity="0.1"/>
    <path id="Path_299" data-name="Path 299" d="M880.635,252.493c.553.153,1.176.172,1.551.935a5.72,5.72,0,0,1,.375,1.907l1.011,12.563a6.99,6.99,0,0,0,.47,2.4c.426.852,1.132.954,1.685,1.5,1.113,1.106,1.437,3.878,1.132,6.135a40.314,40.314,0,0,1-1.678,6.231c-.865,2.925-1.437,6.212-2.651,8.678s-3.421,3.815-4.845,1.742-1.233-6.256-1.5-9.683c-.445-5.722-2.677-10.656-2.829-16.416-.127-4.66,1.125-9.009,1.907-13.428.56-3.033.591-6.714,1.405-9.441C877.348,248.863,878.645,251.946,880.635,252.493Z" transform="translate(-397.627 -165.262)" fill="#493545"/>
    <path id="Path_300" data-name="Path 300" d="M880.635,252.493c.553.153,1.176.172,1.551.935a5.72,5.72,0,0,1,.375,1.907l1.011,12.563a6.99,6.99,0,0,0,.47,2.4c.426.852,1.132.954,1.685,1.5,1.113,1.106,1.437,3.878,1.132,6.135a40.314,40.314,0,0,1-1.678,6.231c-.865,2.925-1.437,6.212-2.651,8.678s-3.421,3.815-4.845,1.742-1.233-6.256-1.5-9.683c-.445-5.722-2.677-10.656-2.829-16.416-.127-4.66,1.125-9.009,1.907-13.428.56-3.033.591-6.714,1.405-9.441C877.348,248.863,878.645,251.946,880.635,252.493Z" transform="translate(-397.627 -165.262)" opacity="0.1"/>
    <path id="Path_301" data-name="Path 301" d="M767.772,217.344l-6.212,5.182s-.738-.865-1.837-2.263c-4.317-5.512-14.242-19.341-7.229-21.814s12.557,11.012,14.515,16.581C767.505,216.441,767.772,217.344,767.772,217.344Z" transform="translate(-352.724 -147.972)" fill="#c77485"/>
    <path id="Path_302" data-name="Path 302" d="M947.527,215.621c-2.588,3.885-6.212,0-6.212,0s-.464-.693-1.119-1.812c-2.13-3.6-6.307-11.6-3.541-14.763,3.179-3.618,11.056,8.729,11.3,14.521A3.446,3.446,0,0,1,947.527,215.621Z" transform="translate(-420.351 -148.061)" fill="#c77485"/>
    <path id="Path_303" data-name="Path 303" d="M854.08,288.957s5.182,16.575,3.624,21.49,11.139,10.637,11.139,10.637h14.5s5.182-10.618,3.885-13.727-12.43-5.436-12.43-5.436-6.472,0-6.212-17.351Z" transform="translate(-390.61 -179.448)" fill="#c77485"/>
    <path id="Path_304" data-name="Path 304" d="M773.309,227.014,767.1,232.2s-.737-.865-1.837-2.263c2.257-.4,5.76-3.694,7.292-5.233C773.042,226.111,773.309,227.014,773.309,227.014Z" transform="translate(-358.261 -157.642)" opacity="0.1"/>
    <path id="Path_305" data-name="Path 305" d="M950.081,224.3c-2.588,3.885-6.212,0-6.212,0s-.464-.693-1.119-1.812l.083-.261c1.678,1.2,6.9.178,7.674,0a3.446,3.446,0,0,1-.426,2.073Z" transform="translate(-422.904 -156.743)" opacity="0.1"/>
    <path id="Path_306" data-name="Path 306" d="M881.6,421.651c-8.011,3.656-34.04-2.855-35.6-3.243a17.054,17.054,0,0,1,3.554-3.128l31.853,1.551a41.306,41.306,0,0,0,.2,4.819Z" transform="translate(-387.667 -227.054)" opacity="0.1"/>
    <path id="Path_307" data-name="Path 307" d="M824.824,280.8s-6.212,2.073-15.017-5.957c0,0-19.709-19.423-20.981-24.084l-15.259-26.7s-6.472,6.994-9.066,5.957l17.09,29.78s3.109,5.722,5.957,7.248c0,0,21.235,27.193,21.49,32.629s9.569,20,9.569,20,3.109,23.562-2.333,27.708c0,0,30.3,7.769,36.768,2.588,0,0-2.848-29.246,0-32.368,0,0,8.806-10.357,2.848-21.75,0,0-1.271-6.212,2.073-9.321s18.387-26.156,18.387-26.156,3.624-5.182,3.624-8.545c0,0,6.733-22.787,5.722-28.744,0,0-5.957,1.272-7.769,0,0,0-8.806,26.7-9.842,27.708s-8.265,22.011-17.866,24.344-11.133,3.363-11.133,3.363,18.641,11.654,9.581,16.829S824.824,280.8,824.824,280.8Z" transform="translate(-357.984 -157.052)" fill="#ffaac4"/>
    <path id="Path_308" data-name="Path 308" d="M869.368,293.526a49.485,49.485,0,0,1-.375-7.356l-14.5,4.4a19.552,19.552,0,0,1,.909,2.975c1.659.731,3.9,2.461,5.824,2.461a13.206,13.206,0,0,0,8.145-2.48Z" transform="translate(-390.759 -180.03)" opacity="0.1"/>
    <circle id="Ellipse_20" data-name="Ellipse 20" cx="13.466" cy="13.466" r="13.466" transform="translate(456.737 88.274)" fill="#c77485"/>
    <path id="Path_309" data-name="Path 309" d="M832.937,246.516c-2.963.229-6.269,2.276-6.1,5.245.089,1.634,1.208,3.014,1.7,4.578,1.176,3.783-1.443,7.579-3.745,10.808s-4.451,7.509-2.48,10.929a26.961,26.961,0,0,0,1.818,2.372c2.435,3.287,2.4,7.725,3.484,11.673a20.479,20.479,0,0,0,24.058,14.623,12.8,12.8,0,0,1-2.7-8.659c.146-2.263.877-4.629,0-6.72-1.132-2.689-4.451-3.751-6.161-6.1s-1.6-5.614-.769-8.418,2.257-5.4,2.944-8.265a24.871,24.871,0,0,1,.636-2.473c1.2-3.4,4.768-5.366,8.265-6.212s7.172-.9,10.586-2.009,6.733-3.719,7.127-7.3c-2.874,1.151-5.538-1.85-8.31-3.23-4.565-2.263-9.772-.134-14.477.388C843.447,248.34,838.36,246.122,832.937,246.516Z" transform="translate(-378.756 -165.522)" opacity="0.1"/>
    <path id="Path_310" data-name="Path 310" d="M832.527,245.706c-2.963.229-6.269,2.276-6.1,5.245.089,1.634,1.208,3.014,1.7,4.578,1.176,3.783-1.443,7.579-3.745,10.808s-4.451,7.509-2.48,10.929a26.941,26.941,0,0,0,1.818,2.372c2.435,3.287,2.4,7.725,3.484,11.673a20.479,20.479,0,0,0,24.058,14.623,12.8,12.8,0,0,1-2.7-8.659c.146-2.263.877-4.629,0-6.72-1.132-2.689-4.451-3.751-6.161-6.1s-1.6-5.614-.769-8.418,2.257-5.4,2.944-8.265a24.9,24.9,0,0,1,.636-2.473c1.2-3.4,4.768-5.366,8.265-6.212s7.172-.9,10.586-2.009,6.733-3.719,7.127-7.3c-2.874,1.151-5.538-1.85-8.31-3.23-4.565-2.263-9.772-.134-14.477.388C843.049,247.524,837.982,245.28,832.527,245.706Z" transform="translate(-378.606 -165.227)" fill="#493545"/>
    <path id="Path_311" data-name="Path 311" d="M885.65,326.3s5.391,4.813,6.453,6.936" transform="translate(-402.108 -194.646)" opacity="0.1"/>
    <path id="Path_312" data-name="Path 312" d="M892.28,371.51s-6.733,0-9.842.776-10.618,0-10.618,0" transform="translate(-397.071 -211.112)" opacity="0.1"/>
    <g id="Group_15" data-name="Group 15" transform="translate(406.51 66.009)" opacity="0.1">
      <path id="Path_313" data-name="Path 313" d="M891.361,327.039a6.473,6.473,0,0,1-1.863.712,7.121,7.121,0,0,0,4.972-.712c9.066-5.182-9.581-16.829-9.581-16.829H881.78S900.428,321.864,891.361,327.039Z" transform="translate(-807.208 -254.795)"/>
      <path id="Path_314" data-name="Path 314" d="M953.307,223.52a2.715,2.715,0,0,0-.064-.47,30.418,30.418,0,0,1-3.224.49,14.281,14.281,0,0,0,3.287-.019Z" transform="translate(-832.062 -223.05)"/>
      <path id="Path_315" data-name="Path 315" d="M819.384,351.353c5.436-4.145,2.333-27.708,2.333-27.708s-9.321-14.5-9.581-19.938-21.49-32.629-21.49-32.629c-2.848-1.551-5.957-7.248-5.957-7.248s-17.611-28.744-20.2-29.78l17.09,29.78s3.109,5.722,5.957,7.248c0,0,21.235,27.193,21.49,32.629s9.575,19.957,9.575,19.957,3.109,23.562-2.333,27.708c0,0,18.622,4.775,29.787,4.342C834.866,355.32,819.384,351.353,819.384,351.353Z" transform="translate(-764.49 -227.056)"/>
      <path id="Path_316" data-name="Path 316" d="M859.223,314.077l-.153-.2a4.091,4.091,0,0,1-.54.121C858.772,314.033,859,314.058,859.223,314.077Z" transform="translate(-798.74 -256.131)"/>
    </g>
    <g id="Group_16" data-name="Group 16" transform="translate(494.808 65.977)" opacity="0.1">
      <path id="Path_317" data-name="Path 317" d="M937.744,223l-.159.032c-.273,7.954-5.792,26.64-5.792,26.64,0,3.363-3.624,8.545-3.624,8.545s-15.017,23.047-18.387,26.156-2.073,9.321-2.073,9.321l.032.064c-.1-2.092.153-5.334,2.3-7.318,3.363-3.109,18.387-26.156,18.387-26.156s3.624-5.182,3.624-8.545C932.047,251.776,938.78,228.989,937.744,223Z" transform="translate(-904.861 -223)"/>
      <path id="Path_318" data-name="Path 318" d="M903.37,360.084c.388,2.2.127-.127.261,2.073,0,0,6.358-7.458,4.622-16.677C908.774,353.72,903.37,360.084,903.37,360.084Z" transform="translate(-903.37 -267.609)"/>
    </g>
    <ellipse id="Ellipse_21" data-name="Ellipse 21" cx="271.908" cy="26.118" rx="271.908" ry="26.118" transform="translate(26.772 368.358)" fill="#7962f4" opacity="0.1"/>
    <path id="Path_319" data-name="Path 319" d="M427.022,640.513s-9.257-31.44,1.736-54.576a49.655,49.655,0,0,0,4.018-31.154,83.515,83.515,0,0,0-4.412-14.623" transform="translate(-233.743 -272.536)" fill="none" stroke="#535461" stroke-miterlimit="10" stroke-width="2"/>
    <path id="Path_320" data-name="Path 320" d="M433.976,512.878c0,3.853-6.994,15.024-6.994,15.024s-6.994-11.171-6.994-15.024a6.994,6.994,0,1,1,13.949,0Z" transform="translate(-232.502 -259.865)" fill="#7962f4"/>
    <path id="Path_321" data-name="Path 321" d="M452.079,544.326c-2.092,3.236-14.019,8.818-14.019,8.818s.216-13.167,2.308-16.4a6.994,6.994,0,1,1,11.711,7.585Z" transform="translate(-239.091 -269.975)" fill="#7962f4"/>
    <path id="Path_322" data-name="Path 322" d="M449.851,600.4c-3.44,1.736-16.531.534-16.531.534s6.835-11.26,10.274-13a6.994,6.994,0,1,1,6.282,12.455Z" transform="translate(-237.365 -289.574)" fill="#7962f4"/>
    <path id="Path_323" data-name="Path 323" d="M439.652,644.359c-3.1,2.289-16.232,3.325-16.232,3.325s4.832-12.252,7.935-14.547a6.994,6.994,0,0,1,8.265,11.215Z" transform="translate(-233.759 -306.029)" fill="#7962f4"/>
    <path id="Path_324" data-name="Path 324" d="M413.573,558.718c2.766,2.683,15.64,5.468,15.64,5.468s-3.179-12.786-5.919-15.475a6.994,6.994,0,1,0-9.721,10.007Z" transform="translate(-229.265 -274.799)" fill="#7962f4"/>
    <path id="Path_325" data-name="Path 325" d="M401.585,609.123c3.44,1.736,16.531.534,16.531.534s-6.809-11.26-10.249-12.964a6.994,6.994,0,0,0-6.282,12.455Z" transform="translate(-224.57 -292.931)" fill="#7962f4"/>
    <path id="Path_326" data-name="Path 326" d="M397.222,659.976c3.1,2.289,16.232,3.325,16.232,3.325s-4.832-12.252-7.935-14.547a6.994,6.994,0,1,0-8.265,11.215Z" transform="translate(-223.004 -311.448)" fill="#7962f4"/>
    <path id="Path_327" data-name="Path 327" d="M433.976,512.878c0,3.853-6.994,15.024-6.994,15.024s-6.994-11.171-6.994-15.024a6.994,6.994,0,1,1,13.949,0Z" transform="translate(-232.502 -259.865)" fill="#7962f4" opacity="0.1"/>
    <path id="Path_328" data-name="Path 328" d="M452.079,544.326c-2.092,3.236-14.019,8.818-14.019,8.818s.216-13.167,2.308-16.4a6.994,6.994,0,1,1,11.711,7.585Z" transform="translate(-239.091 -269.975)" fill="#7962f4" opacity="0.1"/>
    <path id="Path_329" data-name="Path 329" d="M449.851,600.4c-3.44,1.736-16.531.534-16.531.534s6.835-11.26,10.274-13a6.994,6.994,0,1,1,6.282,12.455Z" transform="translate(-237.365 -289.574)" fill="#7962f4" opacity="0.1"/>
    <path id="Path_330" data-name="Path 330" d="M439.652,644.359c-3.1,2.289-16.232,3.325-16.232,3.325s4.832-12.252,7.935-14.547a6.994,6.994,0,0,1,8.265,11.215Z" transform="translate(-233.759 -306.029)" fill="#7962f4" opacity="0.1"/>
    <path id="Path_331" data-name="Path 331" d="M413.573,558.718c2.766,2.683,15.64,5.468,15.64,5.468s-3.179-12.786-5.919-15.475a6.994,6.994,0,1,0-9.721,10.007Z" transform="translate(-229.265 -274.799)" fill="#7962f4" opacity="0.1"/>
    <path id="Path_332" data-name="Path 332" d="M401.585,609.123c3.44,1.736,16.531.534,16.531.534s-6.809-11.26-10.249-12.964a6.994,6.994,0,0,0-6.282,12.455Z" transform="translate(-224.57 -292.931)" fill="#7962f4" opacity="0.1"/>
    <path id="Path_333" data-name="Path 333" d="M397.222,659.976c3.1,2.289,16.232,3.325,16.232,3.325s-4.832-12.252-7.935-14.547a6.994,6.994,0,1,0-8.265,11.215Z" transform="translate(-223.004 -311.448)" fill="#7962f4" opacity="0.1"/>
    <path id="Path_334" data-name="Path 334" d="M721.662,641.223s-9.257-31.44,1.736-54.576a49.655,49.655,0,0,0,4.018-31.154A83.494,83.494,0,0,0,723,540.87" transform="translate(-341.054 -272.795)" fill="none" stroke="#535461" stroke-miterlimit="10" stroke-width="2"/>
    <path id="Path_335" data-name="Path 335" d="M728.607,514.169c0,3.853-6.994,15.024-6.994,15.024s-6.994-11.171-6.994-15.024a6.994,6.994,0,0,1,13.949,0Z" transform="translate(-339.817 -260.711)" fill="#7962f4"/>
    <path id="Path_336" data-name="Path 336" d="M746.729,545.025c-2.092,3.236-14.019,8.818-14.019,8.818s.216-13.167,2.308-16.4a6.994,6.994,0,1,1,11.711,7.585Z" transform="translate(-346.406 -270.23)" fill="#7962f4"/>
    <path id="Path_337" data-name="Path 337" d="M744.531,601.093c-3.44,1.736-16.531.534-16.531.534s6.835-11.26,10.274-13a6.994,6.994,0,1,1,6.256,12.461Z" transform="translate(-344.69 -289.822)" fill="#7962f4"/>
    <path id="Path_338" data-name="Path 338" d="M734.292,645.059c-3.1,2.289-16.232,3.325-16.232,3.325s4.832-12.252,7.935-14.547a6.994,6.994,0,0,1,8.265,11.215Z" transform="translate(-341.07 -306.284)" fill="#7962f4"/>
    <path id="Path_339" data-name="Path 339" d="M708.233,559.418c2.766,2.683,15.64,5.468,15.64,5.468s-3.179-12.786-5.919-15.475a6.994,6.994,0,1,0-9.721,10.007Z" transform="translate(-336.583 -275.054)" fill="#7962f4"/>
    <path id="Path_340" data-name="Path 340" d="M696.211,609.8c3.44,1.736,16.531.534,16.531.534s-6.835-11.26-10.274-13a6.994,6.994,0,0,0-6.282,12.455Z" transform="translate(-331.866 -293.168)" fill="#7962f4"/>
    <path id="Path_341" data-name="Path 341" d="M692.446,661.1c3.1,2.289,16.232,3.325,16.232,3.325s-4.832-12.252-7.935-14.547a6.994,6.994,0,0,0-8.265,11.215Z" transform="translate(-330.893 -312.126)" fill="#7962f4"/>
    <path id="Path_342" data-name="Path 342" d="M728.607,514.169c0,3.853-6.994,15.024-6.994,15.024s-6.994-11.171-6.994-15.024a6.994,6.994,0,0,1,13.949,0Z" transform="translate(-339.817 -260.711)" fill="#7962f4" opacity="0.1"/>
    <path id="Path_343" data-name="Path 343" d="M746.729,545.025c-2.092,3.236-14.019,8.818-14.019,8.818s.216-13.167,2.308-16.4a6.994,6.994,0,1,1,11.711,7.585Z" transform="translate(-346.406 -270.23)" fill="#7962f4" opacity="0.1"/>
    <path id="Path_344" data-name="Path 344" d="M744.531,601.093c-3.44,1.736-16.531.534-16.531.534s6.835-11.26,10.274-13a6.994,6.994,0,1,1,6.256,12.461Z" transform="translate(-344.69 -289.822)" fill="#7962f4" opacity="0.1"/>
    <path id="Path_345" data-name="Path 345" d="M734.292,645.059c-3.1,2.289-16.232,3.325-16.232,3.325s4.832-12.252,7.935-14.547a6.994,6.994,0,0,1,8.265,11.215Z" transform="translate(-341.07 -306.284)" fill="#7962f4" opacity="0.1"/>
    <path id="Path_346" data-name="Path 346" d="M708.233,559.418c2.766,2.683,15.64,5.468,15.64,5.468s-3.179-12.786-5.919-15.475a6.994,6.994,0,1,0-9.721,10.007Z" transform="translate(-336.583 -275.054)" fill="#7962f4" opacity="0.1"/>
    <path id="Path_347" data-name="Path 347" d="M696.211,609.8c3.44,1.736,16.531.534,16.531.534s-6.835-11.26-10.274-13a6.994,6.994,0,0,0-6.282,12.455Z" transform="translate(-331.866 -293.168)" fill="#7962f4" opacity="0.1"/>
    <path id="Path_348" data-name="Path 348" d="M692.446,661.1c3.1,2.289,16.232,3.325,16.232,3.325s-4.832-12.252-7.935-14.547a6.994,6.994,0,0,0-8.265,11.215Z" transform="translate(-330.893 -312.126)" fill="#7962f4" opacity="0.1"/>
    <path id="Path_349" data-name="Path 349" d="M771.574,131.347h-3.993a2.8,2.8,0,1,0,0-5.589H735.207a2.8,2.8,0,0,0,0,5.589H739.2a2.8,2.8,0,0,0,0,5.589h-5.589a2.8,2.8,0,1,0,0,5.589H765.96a2.8,2.8,0,1,0,0-5.589h5.614a2.8,2.8,0,0,0,0-5.589Z" transform="translate(-345.666 -121.605)" fill="#dee3f3" opacity="0.5"/>
    <path id="Path_350" data-name="Path 350" d="M482.954,157.752h-3.039a2.13,2.13,0,1,0,0-4.253H455.3a2.13,2.13,0,0,0,0,4.253h3.039a2.13,2.13,0,1,0,0,4.253h-4.253a2.13,2.13,0,1,0,0,4.253H478.7a2.13,2.13,0,1,0,0-4.253h4.253a2.13,2.13,0,0,0,0-4.253Z" transform="translate(-244.109 -131.709)" fill="#dee3f3" opacity="0.5"/>
    <path id="Path_351" data-name="Path 351" d="M174.768,634s11.126,21.839,2.06,33.786.827,44.505.827,44.505" transform="translate(-142.554 -306.714)" fill="none" stroke="#7962f4" stroke-miterlimit="10" stroke-width="1"/>
    <path id="Path_352" data-name="Path 352" d="M177.46,618.89c0,4.209-3.09,7.629-3.09,7.629s-3.09-3.414-3.09-7.629,3.09-7.63,3.09-7.63S177.46,614.681,177.46,618.89Z" transform="translate(-141.927 -298.432)" fill="#7962f4"/>
    <path id="Path_353" data-name="Path 353" d="M181.632,634s-11.126,21.839-2.06,33.786-.827,44.505-.827,44.505" transform="translate(-143.651 -306.714)" fill="none" stroke="#7962f4" stroke-miterlimit="10" stroke-width="1"/>
    <path id="Path_354" data-name="Path 354" d="M179.67,618.89c0,4.209,3.09,7.629,3.09,7.629s3.09-3.414,3.09-7.629-3.09-7.63-3.09-7.63S179.67,614.681,179.67,618.89Z" transform="translate(-144.982 -298.432)" fill="#7962f4"/>
    <path id="Path_355" data-name="Path 355" d="M179.67,618.89c0,4.209,3.09,7.629,3.09,7.629s3.09-3.414,3.09-7.629-3.09-7.63-3.09-7.63S179.67,614.681,179.67,618.89Z" transform="translate(-144.982 -298.432)" opacity="0.1"/>
    <path id="Path_356" data-name="Path 356" d="M190.988,634s11.126,21.839,2.06,33.786.827,44.505.827,44.505" transform="translate(-148.462 -306.714)" fill="none" stroke="#7962f4" stroke-miterlimit="10" stroke-width="1"/>
    <path id="Path_357" data-name="Path 357" d="M193.63,618.89c0,4.209-3.09,7.629-3.09,7.629s-3.09-3.414-3.09-7.629,3.09-7.63,3.09-7.63S193.63,614.681,193.63,618.89Z" transform="translate(-147.816 -298.432)" fill="#7962f4"/>
    <path id="Path_358" data-name="Path 358" d="M190.135,646.41c-2.918,3.033-7.515,3.351-7.515,3.351s.14-4.6,3.058-7.629,7.515-3.351,7.515-3.351S193.034,643.37,190.135,646.41Z" transform="translate(-146.057 -308.455)" fill="#7962f4"/>
    <path id="Path_359" data-name="Path 359" d="M190.6,670.109c-2.918,3.033-7.515,3.351-7.515,3.351s.14-4.6,3.058-7.629,7.515-3.351,7.515-3.351S193.513,667.07,190.6,670.109Z" transform="translate(-146.224 -317.086)" fill="#7962f4"/>
    <path id="Path_360" data-name="Path 360" d="M165.8,685.372c2.759,3.179,2.664,7.782,2.664,7.782s-4.571-.553-7.331-3.732-2.664-7.782-2.664-7.782S163.041,682.193,165.8,685.372Z" transform="translate(-137.261 -324.065)" fill="#7962f4"/>
    <path id="Path_361" data-name="Path 361" d="M169.382,636.007c3.51,2.327,4.648,6.79,4.648,6.79s-4.552.693-8.062-1.634-4.648-6.79-4.648-6.79S165.891,633.667,169.382,636.007Z" transform="translate(-138.299 -306.813)" fill="#7962f4"/>
    <path id="Path_362" data-name="Path 362" d="M169.382,636.007c3.51,2.327,4.648,6.79,4.648,6.79s-4.552.693-8.062-1.634-4.648-6.79-4.648-6.79S165.891,633.667,169.382,636.007Z" transform="translate(-138.299 -306.813)" opacity="0.1"/>
    <path id="Path_363" data-name="Path 363" d="M197.832,634s-11.126,21.839-2.06,33.786-.827,44.505-.827,44.505" transform="translate(-149.552 -306.714)" fill="none" stroke="#7962f4" stroke-miterlimit="10" stroke-width="1"/>
    <path id="Path_364" data-name="Path 364" d="M195.87,618.89c0,4.209,3.09,7.629,3.09,7.629s3.09-3.414,3.09-7.629-3.09-7.63-3.09-7.63S195.87,614.681,195.87,618.89Z" transform="translate(-150.883 -298.432)" fill="#7962f4"/>
    <path id="Path_365" data-name="Path 365" d="M195.87,618.89c0,4.209,3.09,7.629,3.09,7.629s3.09-3.414,3.09-7.629-3.09-7.63-3.09-7.63S195.87,614.681,195.87,618.89Z" transform="translate(-150.883 -298.432)" opacity="0.1"/>
    <path id="Path_366" data-name="Path 366" d="M195.449,649.422c-2.956,3-3.179,7.629-3.179,7.629s4.6-.261,7.553-3.262S203,646.16,203,646.16,198.405,646.421,195.449,649.422Z" transform="translate(-149.572 -311.143)" fill="#7962f4"/>
    <path id="Path_367" data-name="Path 367" d="M195.449,649.422c-2.956,3-3.179,7.629-3.179,7.629s4.6-.261,7.553-3.262S203,646.16,203,646.16,198.405,646.421,195.449,649.422Z" transform="translate(-149.572 -311.143)" opacity="0.1"/>
    <path id="Path_368" data-name="Path 368" d="M204.559,682.232c-2.956,3-3.179,7.63-3.179,7.63s4.6-.261,7.553-3.262,3.179-7.63,3.179-7.63S207.5,679.231,204.559,682.232Z" transform="translate(-152.889 -323.092)" fill="#7962f4"/>
    <path id="Path_369" data-name="Path 369" d="M193,670.7s6.695-10.554,16.1-10.808" transform="translate(-149.837 -316.143)" fill="none" stroke="#7962f4" stroke-miterlimit="10" stroke-width="1"/>
    <path id="Path_370" data-name="Path 370" d="M175.548,660.668s-6.695-10.554-16.1-10.808" transform="translate(-137.618 -312.49)" fill="none" stroke="#7962f4" stroke-miterlimit="10" stroke-width="1"/>
    <path id="Path_371" data-name="Path 371" d="M183.4,684.368s6.695-10.554,16.1-10.808" transform="translate(-146.341 -321.122)" fill="none" stroke="#7962f4" stroke-miterlimit="10" stroke-width="1"/>
    <circle id="Ellipse_22" data-name="Ellipse 22" cx="1.736" cy="1.736" r="1.736" transform="translate(57.201 341.954)" fill="#7962f4"/>
    <circle id="Ellipse_23" data-name="Ellipse 23" cx="1.736" cy="1.736" r="1.736" transform="translate(20.261 335.723)" fill="#7962f4"/>
    <path id="Path_372" data-name="Path 372" d="M181.928,689.808s-6.695-10.554-16.1-10.808" transform="translate(-139.942 -323.103)" fill="none" stroke="#7962f4" stroke-miterlimit="10" stroke-width="1"/>
    <circle id="Ellipse_24" data-name="Ellipse 24" cx="1.736" cy="1.736" r="1.736" transform="translate(24.318 354.263)" fill="#7962f4"/>
    <circle id="Ellipse_25" data-name="Ellipse 25" cx="1.736" cy="1.736" r="1.736" transform="translate(51.549 350.791)" fill="#7962f4"/>
    <path id="Path_373" data-name="Path 373" d="M213.083,728.068s-16.136-3.23-20.447-7.534-23.664-11.832-25.819-6.453-29.049,23.67-10.758,26.9,43.037,4.3,48.415,2.149S213.083,728.068,213.083,728.068Z" transform="translate(-134.074 -335.2)" fill="#a8a8a8"/>
    <path id="Path_374" data-name="Path 374" d="M156.063,747.995c18.292,3.23,43.037,4.3,48.415,2.149,4.094-1.64,6.943-9.537,8.068-13.173l.54.114s-3.23,12.913-8.609,15.062-30.124,1.074-48.415-2.149c-5.277-.935-6.79-3.122-6.218-5.887C150.29,745.89,152.134,747.3,156.063,747.995Z" transform="translate(-134.078 -344.217)" opacity="0.2"/>
    <path id="Path_375" data-name="Path 375" d="M1011.534,641.78s5.328,6.994-2.461,17.484-14.21,19.4-11.609,25.959c0,0,11.749-19.538,21.312-19.811S1022.056,653.523,1011.534,641.78Z" transform="translate(-442.618 -309.547)" fill="#7962f4"/>
    <path id="Path_376" data-name="Path 376" d="M1011.706,641.78a8.624,8.624,0,0,1,1.087,2.187c9.333,10.961,14.3,21.191,5.334,21.452-8.354.242-18.374,15.176-20.778,18.953a8.116,8.116,0,0,0,.286.858s11.749-19.538,21.312-19.811S1022.228,653.523,1011.706,641.78Z" transform="translate(-442.79 -309.547)" opacity="0.1"/>
    <path id="Path_377" data-name="Path 377" d="M1034.782,654.847c0,2.454-.273,4.451-.636,4.451s-.636-1.99-.636-4.451.343-1.272.68-1.272S1034.782,652.4,1034.782,654.847Z" transform="translate(-455.96 -313.739)" fill="#ffd037"/>
    <path id="Path_378" data-name="Path 378" d="M1038.454,659.388c-2.155,1.176-4.031,1.907-4.19,1.583s1.45-1.494,3.6-2.664,1.3-.318,1.469,0S1040.6,658.212,1038.454,659.388Z" transform="translate(-456.231 -315.349)" fill="#ffd037"/>
    <path id="Path_379" data-name="Path 379" d="M968.82,641.78s-5.328,6.994,2.461,17.484,14.21,19.4,11.609,25.959c0,0-11.749-19.538-21.312-19.811S958.3,653.523,968.82,641.78Z" transform="translate(-428.044 -309.547)" fill="#7962f4"/>
    <path id="Path_380" data-name="Path 380" d="M968.82,641.78a8.629,8.629,0,0,0-1.087,2.187c-9.333,10.961-14.3,21.191-5.334,21.452,8.354.242,18.374,15.176,20.778,18.953a8.074,8.074,0,0,1-.286.858s-11.749-19.538-21.312-19.811S958.3,653.523,968.82,641.78Z" transform="translate(-428.044 -309.547)" opacity="0.1"/>
    <path id="Path_381" data-name="Path 381" d="M960.09,654.847c0,2.454.273,4.451.636,4.451s.636-1.99.636-4.451-.343-1.272-.68-1.272S960.09,652.4,960.09,654.847Z" transform="translate(-429.22 -313.739)" fill="#ffd037"/>
    <path id="Path_382" data-name="Path 382" d="M953.987,659.388c2.155,1.176,4.031,1.907,4.19,1.583s-1.45-1.494-3.6-2.664-1.3-.318-1.469,0S951.832,658.212,953.987,659.388Z" transform="translate(-426.519 -315.349)" fill="#ffd037"/>
    <path id="Path_383" data-name="Path 383" d="M962.76,704.061s14.9-.458,19.385-3.656,22.888-6.994,24.026-1.907,22.386,25.5,5.569,25.635-39.076-2.619-43.558-5.347S962.76,704.061,962.76,704.061Z" transform="translate(-430.192 -329.3)" fill="#a8a8a8"/>
    <path id="Path_384" data-name="Path 384" d="M1012.04,726.973c-16.817.134-39.076-2.619-43.558-5.347-3.414-2.079-4.775-9.537-5.226-12.976h-.5s.941,12.016,5.423,14.744,26.741,5.487,43.558,5.347c4.858-.038,6.53-1.768,6.441-4.323C1017.508,725.975,1015.683,726.942,1012.04,726.973Z" transform="translate(-430.192 -333.902)" opacity="0.2"/>
    <path id="Path_385" data-name="Path 385" d="M279.681,190.677h-3.993a2.8,2.8,0,1,0,0-5.589H243.34a2.8,2.8,0,0,0,0,5.589h3.993a2.8,2.8,0,0,0,0,5.589h-5.589a2.8,2.8,0,0,0,0,5.589h32.349a2.8,2.8,0,1,0,0-5.589h5.589a2.8,2.8,0,0,0,0-5.589Z" transform="translate(-166.62 -143.214)" fill="#dee3f3" opacity="0.5"/>
  </g>
</svg>
