<svg id="undraw_welcome_cats_thqn" xmlns="http://www.w3.org/2000/svg" width="491.076" height="253.736" viewBox="0 0 491.076 253.736">
  <ellipse id="Ellipse_27" data-name="Ellipse 27" cx="245.538" cy="6.868" rx="245.538" ry="6.868" transform="translate(0 213.058)" fill="#e6e6e6"/>
  <path id="Path_388" data-name="Path 388" d="M814.491,439.689c-.31,0-.62.009-.934.009s-.624,0-.934-.009c-16.436-.374-28.349-10.643-25.317-21.418l7.394-26.285,1.869-6.651,33.127.565,2.013,6.507,7.925,25.61C842.989,428.85,831.076,439.315,814.491,439.689Z" transform="translate(-438.099 -294.184)" fill="#3f3d56"/>
  <path id="Path_389" data-name="Path 389" d="M838.085,392.406a36.566,36.566,0,0,1-37.009-.42l1.869-6.651,33.127.565Z" transform="translate(-444.475 -294.184)" opacity="0.2"/>
  <path id="Path_390" data-name="Path 390" d="M865.1,402.845c1.431-5.333,6.134-13.027,19.325-22.3,23-16.181,9.281-28.313,8.686-28.821-1.247-1.066-1.063-2.263.428-2.673a6.2,6.2,0,0,1,4.99,1.161c.745.616,17.929,15.291-8.029,33.546-23.361,16.432-18.394,27.158-18.337,27.261.626,1.147-.378,2.065-2.244,2.053s-3.888-.952-4.516-2.1C865.275,410.73,863.771,407.81,865.1,402.845Z" transform="translate(-472.893 -277.887)" fill="#3f3d56"/>
  <path id="Path_391" data-name="Path 391" d="M804.436,471.057a3.822,3.822,0,0,1-3.822-3.822V450.671a3.822,3.822,0,0,1,7.645,0v16.564A3.822,3.822,0,0,1,804.436,471.057Z" transform="translate(-444.268 -321.721)" fill="#3f3d56"/>
  <path id="Path_392" data-name="Path 392" d="M795.494,409.48a3.822,3.822,0,0,1-5.07,1.875l-15.048-6.923a3.822,3.822,0,0,1,3.2-6.945l15.047,6.923A3.822,3.822,0,0,1,795.494,409.48Z" transform="translate(-431.974 -299.467)" fill="#3f3d56"/>
  <path id="Path_393" data-name="Path 393" d="M856.545,409.48a3.822,3.822,0,0,0,5.07,1.875l15.047-6.923a3.822,3.822,0,1,0-3.2-6.945L858.42,404.41a3.822,3.822,0,0,0-1.875,5.07Z" transform="translate(-469.149 -299.467)" fill="#3f3d56"/>
  <path id="Path_394" data-name="Path 394" d="M859.8,471.057a3.822,3.822,0,0,0,3.822-3.823V450.671a3.822,3.822,0,0,0-7.645,0v16.564a3.822,3.822,0,0,0,3.822,3.822Z" transform="translate(-469.052 -321.721)" fill="#3f3d56"/>
  <path id="Path_395" data-name="Path 395" d="M836.885,271.7a3.759,3.759,0,0,0,.759-2.987l-2.08-12.238-2.08-12.238a3.818,3.818,0,0,0-6.2-2.3l-9.558,7.921-5.759,4.772a36.285,36.285,0,0,0-11.625-.175l-5.547-4.6-9.558-7.921a3.818,3.818,0,0,0-6.2,2.3l-2.08,12.238-2.08,12.238a3.78,3.78,0,0,0,.167,1.919,36.52,36.52,0,1,0,61.846,1.069Z" transform="translate(-430.163 -229.598)" fill="#3f3d56"/>
  <path id="Path_396" data-name="Path 396" d="M792.989,251.728a1.9,1.9,0,0,0-.664.12,1.871,1.871,0,0,0-1.206,1.456L788.6,268.145a1.89,1.89,0,0,0,2.521,2.089L805.232,265a1.89,1.89,0,0,0,.549-3.228h0l-11.591-9.605a1.873,1.873,0,0,0-1.2-.437Z" transform="translate(-438.877 -234.374)" fill="#e6e6e6"/>
  <path id="Path_397" data-name="Path 397" d="M865.245,251.728a1.874,1.874,0,0,0-1.2.437l-11.591,9.606A1.89,1.89,0,0,0,853,265l14.114,5.236a1.89,1.89,0,0,0,2.521-2.089L867.116,253.3a1.871,1.871,0,0,0-1.207-1.456,1.9,1.9,0,0,0-.664-.12Z" transform="translate(-467.169 -234.374)" fill="#e6e6e6"/>
  <circle id="Ellipse_28" data-name="Ellipse 28" cx="5.097" cy="5.097" r="5.097" transform="translate(370.361 60.996)" fill="#e6e6e6"/>
  <ellipse id="Ellipse_29" data-name="Ellipse 29" cx="3.398" cy="1.274" rx="3.398" ry="1.274" transform="translate(372.06 62.27)" fill="#3f3d56"/>
  <path id="Path_398" data-name="Path 398" d="M675.14,125.04h4.672v5.734a2.336,2.336,0,0,1-2.336,2.336h0a2.336,2.336,0,0,1-2.336-2.336Z" transform="translate(-302.23 -55.975)" fill="#ff6584"/>
  <path id="Path_399" data-name="Path 399" d="M832.772,240.69c-.245.508-.483,1.022-.707,1.546a36.354,36.354,0,0,0-2.569,19.522c.478-.694.981-1.417,1.492-2.147A36.33,36.33,0,0,1,832.772,240.69Z" transform="translate(-457.031 -229.433)" fill="#3f3d56"/>
  <path id="Path_400" data-name="Path 400" d="M839.692,249.148c-.245.508-.483,1.022-.707,1.546a36.354,36.354,0,0,0-2.569,19.522c.478-.694.981-1.417,1.492-2.147a36.332,36.332,0,0,1,1.784-18.92Z" transform="translate(-460.129 -233.22)" fill="#3f3d56"/>
  <path id="Path_401" data-name="Path 401" d="M837.534,402.521,837,395.673l-.538-6.848a2.113,2.113,0,0,0-3.3-1.576l-5.661,3.89-4.134,2.841a2.814,2.814,0,0,0-4.28,0l-4.134-2.841-5.661-3.89a2.113,2.113,0,0,0-3.3,1.576l-.538,6.848-.539,6.848a2.113,2.113,0,0,0,3.016,2.073l6.2-2.958,5.094-2.43a2.818,2.818,0,0,0,4.011,0l5.094,2.43,6.2,2.958a2.113,2.113,0,0,0,3.016-2.073Z" transform="translate(-446.185 -294.875)" fill="#7962f4"/>
  <circle id="Ellipse_30" data-name="Ellipse 30" cx="1.274" cy="1.274" r="1.274" transform="translate(367.388 59.297)" fill="#e6e6e6"/>
  <circle id="Ellipse_31" data-name="Ellipse 31" cx="1.274" cy="1.274" r="1.274" transform="translate(380.979 59.297)" fill="#e6e6e6"/>
  <path id="Path_402" data-name="Path 402" d="M368.05,419.31c.31,0,.62.008.934.008s.624,0,.934-.008c16.436-.374,28.349-10.643,25.317-21.418l-7.394-26.285-1.869-6.651-33.127.565-2.013,6.507-7.925,25.61C339.552,408.471,351.465,418.936,368.05,419.31Z" transform="translate(-239.119 -285.061)" fill="#3f3d56"/>
  <path id="Path_403" data-name="Path 403" d="M357.715,372.026a36.566,36.566,0,0,0,37.009-.42l-1.869-6.651-33.127.565Z" transform="translate(-246.002 -285.061)" opacity="0.2"/>
  <path id="Path_404" data-name="Path 404" d="M308.933,390.944c-3.576-4.208-11.119-9.149-27.01-11.89-27.715-4.781-20.5-21.618-20.184-22.332.671-1.5-.008-2.5-1.531-2.232a6.2,6.2,0,0,0-4.013,3.185c-.41.876-9.662,21.492,21.612,26.884,28.146,4.855,28.246,16.675,28.239,16.793-.075,1.3,1.225,1.7,2.907.9s3.107-2.524,3.184-3.828C312.153,398.143,312.262,394.861,308.933,390.944Z" transform="translate(-199.845 -280.357)" fill="#3f3d56"/>
  <path id="Path_405" data-name="Path 405" d="M415.163,450.677a3.822,3.822,0,0,0,3.822-3.822V430.291a3.822,3.822,0,0,0-7.645,0v16.564a3.822,3.822,0,0,0,3.823,3.822Z" transform="translate(-270.008 -312.598)" fill="#3f3d56"/>
  <path id="Path_406" data-name="Path 406" d="M411.909,389.1a3.822,3.822,0,0,0,5.07,1.875l15.048-6.923a3.822,3.822,0,1,0-3.2-6.945l-15.047,6.923a3.822,3.822,0,0,0-1.875,5.07Z" transform="translate(-270.105 -290.344)" fill="#3f3d56"/>
  <path id="Path_407" data-name="Path 407" d="M350.857,389.1a3.822,3.822,0,0,1-5.07,1.875l-15.048-6.923a3.822,3.822,0,1,1,3.2-6.945l15.048,6.923A3.822,3.822,0,0,1,350.857,389.1Z" transform="translate(-232.93 -290.344)" fill="#3f3d56"/>
  <path id="Path_408" data-name="Path 408" d="M359.8,450.677a3.822,3.822,0,0,1-3.822-3.822V430.291a3.822,3.822,0,0,1,7.645,0v16.564a3.822,3.822,0,0,1-3.823,3.822Z" transform="translate(-245.224 -312.598)" fill="#3f3d56"/>
  <path id="Path_409" data-name="Path 409" d="M391.549,250.252a3.78,3.78,0,0,0,.167-1.919l-2.08-12.238-2.08-12.238a3.818,3.818,0,0,0-6.2-2.3l-9.558,7.921-5.547,4.6a36.285,36.285,0,0,0-11.625.175l-5.759-4.772-9.558-7.921a3.818,3.818,0,0,0-6.2,2.3l-2.08,12.238-2.08,12.238a3.759,3.759,0,0,0,.759,2.987,36.53,36.53,0,1,0,61.846-1.069Z" transform="translate(-231.102 -220.475)" fill="#3f3d56"/>
  <path id="Path_410" data-name="Path 410" d="M417.1,231.786l-11.591,9.605h0a1.89,1.89,0,0,0,.549,3.228l14.114,5.236a1.89,1.89,0,0,0,2.521-2.089l-2.523-14.841a1.871,1.871,0,0,0-1.207-1.456,1.9,1.9,0,0,0-.664-.12A1.874,1.874,0,0,0,417.1,231.786Z" transform="translate(-267.092 -225.251)" fill="#e6e6e6"/>
  <path id="Path_411" data-name="Path 411" d="M345.382,231.469a1.871,1.871,0,0,0-1.207,1.456l-2.523,14.841a1.89,1.89,0,0,0,2.521,2.089l14.114-5.236a1.89,1.89,0,0,0,.549-3.228l-11.591-9.606a1.874,1.874,0,0,0-1.2-.437A1.9,1.9,0,0,0,345.382,231.469Z" transform="translate(-238.8 -225.251)" fill="#e6e6e6"/>
  <circle id="Ellipse_32" data-name="Ellipse 32" cx="5.097" cy="5.097" r="5.097" transform="translate(124.769 49.739)" fill="#e6e6e6"/>
  <ellipse id="Ellipse_33" data-name="Ellipse 33" cx="3.398" cy="1.274" rx="3.398" ry="1.274" transform="translate(126.468 51.013)" fill="#3f3d56"/>
  <path id="Path_412" data-name="Path 412" d="M2.336,0h0A2.336,2.336,0,0,1,4.672,2.336V8.07H0V2.336A2.336,2.336,0,0,1,2.336,0Z" transform="translate(132.414 65.878) rotate(180)" fill="#ff6584"/>
  <path id="Path_413" data-name="Path 413" d="M390.066,220.31c.245.508.483,1.022.707,1.546a36.354,36.354,0,0,1,2.569,19.522c-.478-.694-.981-1.417-1.492-2.147a36.33,36.33,0,0,0-1.784-18.92Z" transform="translate(-260.484 -220.31)" fill="#3f3d56"/>
  <path id="Path_414" data-name="Path 414" d="M383.146,228.768c.245.508.483,1.022.707,1.546a36.354,36.354,0,0,1,2.569,19.522c-.478-.694-.981-1.417-1.492-2.147A36.331,36.331,0,0,0,383.146,228.768Z" transform="translate(-257.386 -224.097)" fill="#3f3d56"/>
  <path id="Path_415" data-name="Path 415" d="M361.8,247.579l.538-6.848.538-6.848a2.113,2.113,0,0,1,3.3-1.576l5.661,3.89,4.134,2.841a2.814,2.814,0,0,1,4.28,0l4.134-2.841,5.661-3.89a2.113,2.113,0,0,1,3.3,1.576l.538,6.848.538,6.848a2.113,2.113,0,0,1-3.016,2.073l-6.2-2.958-5.094-2.43a2.818,2.818,0,0,1-4.011,0l-5.094,2.43-6.2,2.958a2.113,2.113,0,0,1-3.016-2.073Z" transform="translate(-247.83 -225.515)" fill="#7962f4"/>
  <path id="Path_416" data-name="Path 416" d="M400.575,308.56c0,.7.57,0,1.274,0s1.274.7,1.274,0a1.274,1.274,0,1,0-2.548,0Z" transform="translate(-265.189 -259.245)" fill="#e6e6e6"/>
  <path id="Path_417" data-name="Path 417" d="M378.518,308.56c0,.7-.57,0-1.274,0s-1.274.7-1.274,0a1.274,1.274,0,1,1,2.548,0Z" transform="translate(-254.174 -259.245)" fill="#e6e6e6"/>
  <path id="Path_418" data-name="Path 418" d="M448.231,256.887v-8.1H407.736v81.5h40.495v-8.1h-32.4v-65.3Z" transform="translate(-182.525 -111.371)" fill="#3f3d56"/>
  <path id="Path_419" data-name="Path 419" d="M672.253,469.1v81.5h40.495V469.1Zm32.4,73.4h-24.3V477.2h24.3Z" transform="translate(-386.807 -331.682)" fill="#7962f4"/>
  <path id="Path_420" data-name="Path 420" d="M306.78,322.6v-72.89h-8.1v80.989h40.495v-8.1Z" transform="translate(-133.706 -111.782)" fill="#7962f4"/>
  <path id="Path_421" data-name="Path 421" d="M232.871,256.887v-8.1H192.376v81.5h40.495v-8.1h-32.4V293.332h32.4v-8.1h-32.4V256.887Z" transform="translate(-86.118 -111.371)" fill="#3f3d56"/>
  <path id="Path_422" data-name="Path 422" d="M806.553,256.887v-8.1H766.058v81.5h40.495v-8.1h-32.4V293.332h32.4v-8.1h-32.4V256.887Z" transform="translate(-342.93 -111.371)" fill="#7962f4"/>
  <path id="Path_423" data-name="Path 423" d="M101.249,249.5v66.936L79.9,295.082l-.049.049-.045-.045-21.83,21.83V249.247h-8.1v80.989h8.1V328.37L79.85,306.49l21.4,21.4v2.6h8.1V249.5Z" transform="translate(-22.326 -111.577)" fill="#3f3d56"/>
  <path id="Path_424" data-name="Path 424" d="M675.848,249.5v1.866l-21.879,21.879-21.4-21.4v-2.6h-8.1v80.989h8.1V263.3l21.354,21.354.049-.049.045.045,21.831-21.83v67.67h8.1V249.5Z" transform="translate(-279.548 -111.577)" fill="#3f3d56"/>
  <circle id="Ellipse_34" data-name="Ellipse 34" cx="4.971" cy="4.971" r="4.971" transform="translate(180.106 78.09)" fill="#7962f4"/>
  <circle id="Ellipse_35" data-name="Ellipse 35" cx="4.971" cy="4.971" r="4.971" transform="translate(57.486 133.325)" fill="#7962f4"/>
  <circle id="Ellipse_36" data-name="Ellipse 36" cx="4.971" cy="4.971" r="4.971" transform="translate(155.803 243.793)" fill="#7962f4"/>
  <circle id="Ellipse_37" data-name="Ellipse 37" cx="4.971" cy="4.971" r="4.971" transform="translate(280.633 93.003)" fill="#7962f4"/>
  <circle id="Ellipse_38" data-name="Ellipse 38" cx="4.971" cy="4.971" r="4.971" transform="translate(427.004 239.375)" fill="#7962f4"/>
  <circle id="Ellipse_39" data-name="Ellipse 39" cx="4.971" cy="4.971" r="4.971" transform="translate(431.975 109.021)" fill="#7962f4"/>
  <circle id="Ellipse_40" data-name="Ellipse 40" cx="4.971" cy="4.971" r="4.971" transform="translate(369.008 198.501)" fill="#7962f4"/>
</svg>
